<mxfile host="app.diagrams.net" modified="2022-04-20T13:06:36.188Z" agent="5.0 (Macintosh; Intel Mac OS X 10_15_7) AppleWebKit/537.36 (KHTML, like Gecko) Chrome/100.0.4896.75 Safari/537.36" etag="8c7d6881V0ZvHcC6we2C" version="17.4.5" type="github">
  <diagram id="NecCnAi0XGE5SN8Ctj-Y" name="Page-1">
    <mxGraphModel dx="946" dy="614" grid="1" gridSize="10" guides="1" tooltips="1" connect="1" arrows="1" fold="1" page="1" pageScale="1" pageWidth="827" pageHeight="1169" math="0" shadow="0">
      <root>
        <mxCell id="0" />
        <mxCell id="1" parent="0" />
        <mxCell id="RJD5OzlgK-uC3pti9mqh-24" value="" style="rounded=1;whiteSpace=wrap;html=1;fontSize=14;dashed=1;" vertex="1" parent="1">
          <mxGeometry x="120" y="130" width="510" height="390" as="geometry" />
        </mxCell>
        <mxCell id="RJD5OzlgK-uC3pti9mqh-16" value="" style="rounded=1;whiteSpace=wrap;html=1;fontSize=14;dashed=1;dashPattern=1 1;" vertex="1" parent="1">
          <mxGeometry x="140" y="420" width="460" height="70" as="geometry" />
        </mxCell>
        <mxCell id="RJD5OzlgK-uC3pti9mqh-21" style="edgeStyle=orthogonalEdgeStyle;rounded=0;orthogonalLoop=1;jettySize=auto;html=1;entryX=0.5;entryY=0;entryDx=0;entryDy=0;fontSize=14;" edge="1" parent="1" source="RJD5OzlgK-uC3pti9mqh-12" target="RJD5OzlgK-uC3pti9mqh-16">
          <mxGeometry relative="1" as="geometry" />
        </mxCell>
        <mxCell id="RJD5OzlgK-uC3pti9mqh-12" value="" style="rounded=1;whiteSpace=wrap;html=1;fontSize=14;dashed=1;" vertex="1" parent="1">
          <mxGeometry x="140" y="310" width="460" height="60" as="geometry" />
        </mxCell>
        <mxCell id="RJD5OzlgK-uC3pti9mqh-20" style="edgeStyle=orthogonalEdgeStyle;rounded=0;orthogonalLoop=1;jettySize=auto;html=1;entryX=0;entryY=0.5;entryDx=0;entryDy=0;fontSize=14;" edge="1" parent="1" source="RJD5OzlgK-uC3pti9mqh-1" target="RJD5OzlgK-uC3pti9mqh-2">
          <mxGeometry relative="1" as="geometry" />
        </mxCell>
        <mxCell id="RJD5OzlgK-uC3pti9mqh-1" value="&lt;font style=&quot;font-size: 12px&quot;&gt;Master&lt;/font&gt;" style="rounded=1;whiteSpace=wrap;html=1;fillColor=#dae8fc;strokeColor=#6c8ebf;" vertex="1" parent="1">
          <mxGeometry x="140" y="175" width="120" height="60" as="geometry" />
        </mxCell>
        <mxCell id="RJD5OzlgK-uC3pti9mqh-19" style="edgeStyle=orthogonalEdgeStyle;rounded=0;orthogonalLoop=1;jettySize=auto;html=1;fontSize=14;" edge="1" parent="1" source="RJD5OzlgK-uC3pti9mqh-2">
          <mxGeometry relative="1" as="geometry">
            <mxPoint x="417" y="300" as="targetPoint" />
          </mxGeometry>
        </mxCell>
        <mxCell id="RJD5OzlgK-uC3pti9mqh-2" value="&lt;font style=&quot;font-size: 12px&quot;&gt;Job&lt;/font&gt;" style="rounded=1;whiteSpace=wrap;html=1;fontSize=14;fillColor=#f8cecc;strokeColor=#b85450;" vertex="1" parent="1">
          <mxGeometry x="360" y="180" width="114" height="50" as="geometry" />
        </mxCell>
        <mxCell id="RJD5OzlgK-uC3pti9mqh-3" value="&lt;font style=&quot;font-size: 10px&quot;&gt;Job1-task0&lt;/font&gt;" style="rounded=1;whiteSpace=wrap;html=1;fontSize=14;fillColor=#f8cecc;strokeColor=#b85450;" vertex="1" parent="1">
          <mxGeometry x="160" y="320" width="90" height="40" as="geometry" />
        </mxCell>
        <mxCell id="RJD5OzlgK-uC3pti9mqh-7" value="&lt;font style=&quot;font-size: 12px&quot;&gt;Worker1&lt;/font&gt;" style="rounded=1;whiteSpace=wrap;html=1;fontSize=14;fillColor=#ffe6cc;strokeColor=#d79b00;" vertex="1" parent="1">
          <mxGeometry x="160" y="430" width="110" height="50" as="geometry" />
        </mxCell>
        <mxCell id="RJD5OzlgK-uC3pti9mqh-8" value="&lt;font style=&quot;font-size: 12px&quot;&gt;Worker..&lt;/font&gt;" style="rounded=1;whiteSpace=wrap;html=1;fontSize=14;fillColor=#ffe6cc;strokeColor=#d79b00;" vertex="1" parent="1">
          <mxGeometry x="315" y="430" width="110" height="50" as="geometry" />
        </mxCell>
        <mxCell id="RJD5OzlgK-uC3pti9mqh-9" value="&lt;font style=&quot;font-size: 12px&quot;&gt;Worker199&lt;/font&gt;" style="rounded=1;whiteSpace=wrap;html=1;fontSize=14;fillColor=#ffe6cc;strokeColor=#d79b00;" vertex="1" parent="1">
          <mxGeometry x="470" y="430" width="110" height="50" as="geometry" />
        </mxCell>
        <mxCell id="RJD5OzlgK-uC3pti9mqh-10" value="&lt;font style=&quot;font-size: 10px&quot;&gt;Job1-task..&lt;/font&gt;" style="rounded=1;whiteSpace=wrap;html=1;fontSize=14;fillColor=#f8cecc;strokeColor=#b85450;" vertex="1" parent="1">
          <mxGeometry x="325" y="320" width="90" height="40" as="geometry" />
        </mxCell>
        <mxCell id="RJD5OzlgK-uC3pti9mqh-11" value="&lt;font style=&quot;font-size: 10px&quot;&gt;Job1-task199&lt;/font&gt;" style="rounded=1;whiteSpace=wrap;html=1;fontSize=14;fillColor=#f8cecc;strokeColor=#b85450;" vertex="1" parent="1">
          <mxGeometry x="480" y="320" width="90" height="40" as="geometry" />
        </mxCell>
        <mxCell id="RJD5OzlgK-uC3pti9mqh-14" value="生产者" style="text;html=1;align=center;verticalAlign=middle;resizable=0;points=[];autosize=1;strokeColor=none;fillColor=none;fontSize=14;" vertex="1" parent="1">
          <mxGeometry x="140" y="150" width="60" height="20" as="geometry" />
        </mxCell>
        <mxCell id="RJD5OzlgK-uC3pti9mqh-17" value="消费者" style="text;html=1;align=center;verticalAlign=middle;resizable=0;points=[];autosize=1;strokeColor=none;fillColor=none;fontSize=14;" vertex="1" parent="1">
          <mxGeometry x="130" y="390" width="60" height="20" as="geometry" />
        </mxCell>
        <mxCell id="RJD5OzlgK-uC3pti9mqh-23" value="任务列表" style="text;html=1;align=center;verticalAlign=middle;resizable=0;points=[];autosize=1;strokeColor=none;fillColor=none;fontSize=14;" vertex="1" parent="1">
          <mxGeometry x="140" y="280" width="70" height="20" as="geometry" />
        </mxCell>
        <mxCell id="RJD5OzlgK-uC3pti9mqh-25" value="统计服务" style="text;html=1;align=center;verticalAlign=middle;resizable=0;points=[];autosize=1;strokeColor=none;fillColor=none;fontSize=14;" vertex="1" parent="1">
          <mxGeometry x="530" y="155" width="70" height="20" as="geometry" />
        </mxCell>
        <mxCell id="RJD5OzlgK-uC3pti9mqh-27" value="" style="rounded=1;whiteSpace=wrap;html=1;dashed=1;dashPattern=1 1;fontSize=12;strokeWidth=2;" vertex="1" parent="1">
          <mxGeometry x="170" y="630" width="330" height="100" as="geometry" />
        </mxCell>
        <mxCell id="RJD5OzlgK-uC3pti9mqh-58" style="edgeStyle=orthogonalEdgeStyle;rounded=0;orthogonalLoop=1;jettySize=auto;html=1;exitX=1;exitY=0.5;exitDx=0;exitDy=0;fontSize=11;" edge="1" parent="1" source="RJD5OzlgK-uC3pti9mqh-28" target="RJD5OzlgK-uC3pti9mqh-33">
          <mxGeometry relative="1" as="geometry" />
        </mxCell>
        <mxCell id="RJD5OzlgK-uC3pti9mqh-28" value="" style="shape=image;verticalLabelPosition=bottom;labelBackgroundColor=default;verticalAlign=top;aspect=fixed;imageAspect=0;image=data:image/png,iVBORw0KGgoAAAANSUhEUgAAAMgAAADICAYAAACtWK6eAAAAAXNSR0IArs4c6QAAEZ1JREFUeF7tnY/RJDcRxeUIgAjAERyOwBABOAJDBIYIwBEAEYAjACIwRABEAI4AiADq3a3s9dyopVZ3Sz07b6q+uqtaadR66t/ov/RB4UMFqEBTgQ+oDRWgAm0FCAi9gwoIChAQugcVICD0ASowpwBrkDndGOsmChCQmxQ0szmnAAGZ042xbqIAAblJQTObcwoQkDndGOsmChCQmxQ0szmnAAGZ042xbqIAAblJQTObcwoQkDndGOsmChCQmxQ0szmnAAGZ042xbqIAAblJQTObcwoQkDndGOsmCqwC5OOb6Pmq2fyqlPKvV82clK9VgPzvjuK+UJ7/U0r5cSnl7y+Up6GsEJAhmRiolHJLSAgIfV+jwO0gISAa92BYKHArSAgInX5GgdtAQkBm3INxblOT7AYEIyN/ob+lUQBloRmSf/mahICk8c0UhmgBefmahICk8Ms0RswA8tKQEJA0vpnCkBYgvyul/KiU8kaw8iWbWwQkhV+mMaIFyOellN8++ou3goSApPHNFIZIgPy6lPLdu0FCQFL4ZRojeoDA0FtBQkDS+GYKQ0YAuRUkBCSFX6YxYhSQ20BCQNL4ZgpDNIDcAhICksIv0xihBeTlISEgaXwzhSEzgLw0JAQkhV+mMWIWkJeFhICk8c0UhlgAeUlICEgKv0xjhBWQl4OEgKTxzRSGeADyUpAQkBR+mcYIL0BeBhICksY3UxjiCchLQEJAUvhlGiO8Abk8JAQkjW+mMCQCkEtDQkBS+GUaI6IAuSwkBCSNb6YwJBKQS0JCQFL4ZRojogG5HCQEJI1vpjBkBSCXgoSApPDLNEasAuQykBCQdb6Jraq/KqX88HFCSCtlnA6Cawb+VErBaSIrn5WAXAISArLG/X5aSvn9Yz+3JkWA8snCy2tWA5IeEgKicde5sKgx/jYX9W0sQIIjWlGzRD87AEkNCQGJdrl3cAASy4Om1i8sLxiMuwuQtJAQkEHPmQxmrT1qsqg9vjdpgybaTkBSQkJANO6jD/uzR99DH/P9GB8u6IvsBiQdJATEw3Xb78BphBi5Oj7/EJpMXzZet+KqiBYguOF25S23GPHrNUuX1KoEZA8gfxWGels3Au8EJFal+beH+294Ao+87yz0efntMVs1CAGxa4s3hPtveAIE5LSJRUAIyLcUYA3ybYcgIATkMoDgTr4fPKxF5xkTc15P5iYW8o2OMDq7Nd+zN0x56aV9T3gLKDyBxE2s1vIPjNb83Oly0YyAfFZKqXd9PDskPgyo2VbM2GtAwMfr00aEcP8NTyApIFgXhTkK6cGNSr/UlOQhLAoWQ7xn6cw0seDUmFGfdWAMnf6xs1ASWcDH4Q+GfHtHxdVvraHvcP8NTyAhICNw1EKGo8BhRh9A8ZMHFNI4/gwg1QZ86WHXnxVzE4ADTtabW6hpZIKEgIx6n0M4DRyjkMD50ARATTHqgBZAnmVAnwGwfCFoo4UjGyQExMHxR14xA4cECRwP7XksIsT/NY8XIDVN9JsAyrEJNgtHJkgIiMazJsP24PhvKeU7nXfX5pYFjJqENyD1veif1L7KCBwj+d7d3CIgk04/Gg1f+N8IgeEkKAQ0jwCS9KBJg3DaGuP5nRhSBWwYBDh78Bvs+f5oBk/CoUYBLFKTT5Pvj5yHvzVZIyAatZRh0WnGfoyWQ1cnqXMfnqtvq6kAAttnkQYAGx2Fgu0VXAxJW4A5yqbNN2wHJDseAhKoulR7HJ2kmuEBSa0lAIbXKljUBrDNCstsvnfVIgQkEBA0V84mmVpOYoEE70SzCWl6QdGSBrAA/tYEWiueJd/YGw/gVz8EJFBxFCjmJY7PyD7v0ZqkggE4RptPXllGMwyd8hFQenDAJoCH+ZKzJikmTVv9Jq/8nL2HgASq21rqgSStkOwE4yhZDxQrHEhvxX4UAnJQIFr03p7wWUgwi40mTnRTSvvtwNcWX/k3TxE94MA7LCN32nw8h2cNYlFvIG6rmVWjaiD56tFRxmhU5gfwovbEAweTVihLzaqax13Nq2o/12IFehu+fPjSSxOBI5BUR1vdz5iVBs0u5N0KhzSpOWubJh5rEI1ak2HxlcRX3wrJZPIpo43UHBiuhoPu/CgQkEXuQ0i+EfoqcLCJ5bQxaZQxQiIP5VYdM9Qc1RbWIKPe7RTuzpBcqeYgIBvH1nuQ4As6urfDidslr0HHHZ32Vl8sU81BQDYCAkf5p+CSu9YdraBEmjzFaB+OOM30sIm1oTSwNxuL/s6eVSepb8j210miFnmeTHy2Zeecx5kmBGSxp0iCY8YYtUvksCbmJuCcZ/tK6hm4mHuIfCQNkHfUIpEaaPJGQDRqOYTFrCxEP3uids/VwxxQa7XSfrYHzol5G6wCwLKWCGdtrXSGHZ8/zcQ7SG56BQExyaeLLPU9sIykHiCne2s7dL2X0HL5DeBAfOlghhl7JS0y9UUIyEzpTsaRvpretQfOxJo50KGVNTgt+geeezJW6jFZZG9rXK7FmlVPEQ9f8383wnvWHkgHe9tbgwAKk0+DAjqv22+lWgRNPKy23v0QkEUlIG2A8qo94HAYIYueQ8GXH7WJR99EqkVW3GrVK34C0lPI6ffWsnevvQ4jx+w8ZwWTckcHB2CjhzNoT31sySjtmckw5EtAnACQXiM1r9D57Z3TO2KiNDpW46Mph4k6NF9am63q4QywqXdWl5cDw5YzMHeeZlI1IyAj3mcMg/4Amj5nj8dhBNjFh1MWWw9qKfQdNIdCA2rEObvj8DmdaPtxu65HU262CAnIrHJP8fDVlb62cLSzTrNH86q3bAVNKdQGs/eOwG6A1cqfx5Cs1MyCdpLtqBUjtx4TkElA4Jg4MdEyWuTRvJKWrXgt/ustrvQYZGg1s0aKBzUMIMYEo3dtQ0BGSuAQBl9kwGE9SMDaPFm5bEVqJnosD5FGs0aLCDUNNPWsUQjIqPqPcL3jRDWvsw5jSk4VcWKLtBLXWouMngPW09e7Y09Aeooffu+dUjL6Oo/JQUw8ntViUQcdSAdQYM2WpbnZ60uN6opwXqNreBcB0ShfSmndmKt8zdu1TZbhXaljG1F71Py1RszQzMKIk+Wx9EOe0/X8QBAQRYn2DoJTvMp8F1+rueMxMiblIxJMj34IbPeAtWpAQBRevVWsg50tZ7LWTCNytL701n7ISNrPYVaUx4o0mvm+2iWeW8U6qNi6U3zFXoqdaRMQ7WdkIHyr36BtqxOQd2ITkHc6hH/gwxN4wPOKgLT2dXuO4LS+PQSEgJz6BmsQ1iDPjhH+gQ9P4IVrkNZ8zIpTUXDv4tmekxW1F/sgA30KbZAVTSztlQToTGvjPOe7NczrsXhQ0lea0NP26Y7pYGHi2Y1cLXswcdnaHOb18d3aavDKRA8YL0CQjtdEofVLL62Nsi5hkfSULia1Lk1v1Uy98j3+zolCpWKegEiHnmnM8lgz1MpX5FwIToQ8O33F6pTSpjKNrghr/fisbsY183fFGkSqcrUFaf3iSuvCImoRaUGhtf8h1YgaXbHGDc0ur2XvbGJp1H+ElZoZmtdZ2+ySw47cWqWxtXcyuxXI3q7IEVuxzAagWfp2x3QIyIjyJ2F6O+1GXuvRFJCafF4HK/QOhPCYvbf2P7A5DGXiuRcEZUhARjxZCAMBz865PbZjPz55h0c/pNfksx7R0ztKyOM8YWlkDP0pyenxG3Sc3VLcK34C0lPI4XepKWRtmsC81sx2NX12px2cA1t6pZ2THrVH5MiYtfgIiFXBgfjSCI21c4vk622yvTOtUJugWdf72mIuAk4L55Aer9GyVvMqw0VCBGTAwT2CtEacPJpZsK93sMJzHtAsgT0Y6cFfrSHQ1EE7fmSvvdeBEFLzyuPjYS07AmJVcDC+1MyyjmZVE1CYcPzegW+DJjeDeXaIpX3uHs1Pa14JiFXBwfgrTlesNQkg6TW3Bs1+Lxj2ngN2j3kGaIKJx7MaK0PzCpknILOeMhFv1cQeHA5pnY2cTZj9dRSPYenn9KXaI0PzioA4Tyr1nE/6GsGhcaaT54P04IRWUNAZx3s85xik2sNj6NhLR9YgXkoOvkcakvXqixxNQZMInW/NSlk4KaDFyJfnzHS1Tao9PIaOB4ujG4yAdCXyDSAJ7jWiJVkMUDDiJV3iCTB6Q8EWVaTD9zLVHmxiBX0de84j1SJZ2t69PFh+l84TzlR7EJBNgEi1iMc5txbnjY4rrdr1XonrkRc2sTxUVL5D6qDiVREddqWJIcGRb8yat27zzZhvAhLiCu2X9lbGIma2driXRL2FlUjHawXyCpvD9zOFJ/BQyXNHoUX4UTjgSJGdZEserHFHTnHPBAlrEGuJD8YnHN8IdSVICMigg1uCEY731bsKJATE4vmDcXu75dDn6DWrAJnH+qdBk12C9WwegcR7eYs2YwREq5gyvDRjXDvkPTjqfnDMn2CexHPJhzI7Q8GRH1xRhwerAySwRyCJWmEwkhkCMqLSZJjerUkjNcfxsAQ4G6DDlzXbgxoD10Zjs1V9Rg6P6EESfRiepCMBCfQyaSvpDBzPpsLxUJtErJOakeTTUgpOJjlbuu4ByUebRvYIyIw3DMZpXXJjheM5eQBiPcZ0MDunwQAGarTW5J9XTbL6cp5qNwGxeEcnbguQ3he1dwbVWbKrQRkF41jrSX0SKd8EJNBRd00USh30FiQzcDxLV/ebYw+H92QjlstjLdXovvWzIp3N966OOmuQQDB7l34encUKxzErFRbULjg7VztMjGYTNlvBSSxQHO3S5jv6YlJ20hsKrPgq9Y7UrM4CZ/yyc6IIVrta9pojLcCCfeWtzj2aTgACf71+heRYcGrp8AhNvrHTEgsZdzysQYJVx6gOnPGNkA6cBc4oHbdTj9lBLWPdRiudxG693gHwYfSu5rsHSS/fXmdvzRYzAZlVThFvBBLpdWdnUFn2m0cAgncC3OeaSXNW11n+d8MBmwiIwtEtQWch6R3QhgLU3szkBUjdty4d6DALSQY4CMjiiTYtJD04noHFu+sIU+9wBisgaEahT1BPZ+x9OLSQZIGDgCwGBIKPQqKB4+igFRYs4Tg78mcGEDgtgEATSjsaBvtGIckEBwHZAEiFBM2SzxqfXq+DC1rzMDOAeIz4AVxMnp7VcGiuwV6M+mV62AfZWBr4qqJZVIdTMZqFr7TXat1sgFSpa77xL/Ja52u88u1ZpATEU81k78oKSDKZRHMIyJVKS2krAVEKdhKcgNg1TPsGAmIvGgJi1zDtGwiIvWgIiF3DtG8gIPaiISB2DdO+wes+d2Rw146+3eISkN0lEJj+yEmGo8mvOuRv1J5V4QjIKqU3pYNZb+udhVhagvmaOz4E5MVLXTpNfSTrr3pO8EjeEYaAjCp14XCzfRHAAcCynJyyowgIyA7VN6SJgsY6J2nj1rNZnrfZbsiuW5IExE3K67wIhd560GfxPuzhOsq8bykBuXLp0fZwBQhIuMRM4MoKEJArlx5tD1eAgIRLzASurAABuXLp0fZwBQiIQmLs/MPBanyuqwD2vGt2LhIQRVl7rm1SJMugjgpo99YTEIX4BEQhVtKgBOSkYLxOdycgSb1eYRYBISAKd7lfUAJCQO7n9YocE5BAQHCOU7aDzRS+waCPc4w1a83YSafbUAFBAQJC96ACBORcAW17lJ50PwVYg9yvzJljhQIERCEWg95PAQJyvzJnjhUK3BoQhU4MSgXeUyD8rLDwBB5Zst7cSt+gAmcKhPtveAIEhJ4dqEC4/4YnQEAC3YOvDvff8AQICL04UIFw/w1PgIAEugdfHe6/4Qk8ylA6KI3FTAVmFQg/knUVILMCMB4V2KoAAdkqPxPPrgAByV5CtG+rAgRkq/xMPLsCBCR7CdG+rQoQkK3yM/HsChCQ7CVE+7YqQEC2ys/EsytAQLKXEO3bqgAB2So/E8+uAAHJXkK0b6sCBGSr/Ew8uwIEJHsJ0b6tChCQrfIz8ewKEJDsJUT7tipAQLbKz8SzK0BAspcQ7duqAAHZKj8Tz67A/wEjPYAUVvAITAAAAABJRU5ErkJggg==;" vertex="1" parent="1">
          <mxGeometry x="200" y="650" width="50" height="50" as="geometry" />
        </mxCell>
        <mxCell id="RJD5OzlgK-uC3pti9mqh-68" value="" style="edgeStyle=orthogonalEdgeStyle;rounded=0;orthogonalLoop=1;jettySize=auto;html=1;fontSize=11;" edge="1" parent="1">
          <mxGeometry relative="1" as="geometry">
            <mxPoint x="225" y="788.5" as="sourcePoint" />
            <mxPoint x="225" y="716" as="targetPoint" />
          </mxGeometry>
        </mxCell>
        <mxCell id="RJD5OzlgK-uC3pti9mqh-30" value="" style="shape=cylinder3;whiteSpace=wrap;html=1;boundedLbl=1;backgroundOutline=1;size=15;fontSize=12;strokeWidth=2;" vertex="1" parent="1">
          <mxGeometry x="195" y="782.5" width="60" height="80" as="geometry" />
        </mxCell>
        <mxCell id="RJD5OzlgK-uC3pti9mqh-31" value="" style="shape=cylinder3;whiteSpace=wrap;html=1;boundedLbl=1;backgroundOutline=1;size=15;fontSize=12;strokeWidth=2;" vertex="1" parent="1">
          <mxGeometry x="415" y="785" width="60" height="80" as="geometry" />
        </mxCell>
        <mxCell id="RJD5OzlgK-uC3pti9mqh-33" value="" style="shape=image;verticalLabelPosition=bottom;labelBackgroundColor=default;verticalAlign=top;aspect=fixed;imageAspect=0;image=data:image/png,iVBORw0KGgoAAAANSUhEUgAAAMgAAADICAYAAACtWK6eAAAAAXNSR0IArs4c6QAAE+tJREFUeF7tnX+wXVV1x9e6L4QESVJbQY0MRYyIwYR39z7JI4A0mdKJIphUCVgypYCKiIiFgkAYJVhBVEAtGI2g4GhBiWCCf1ilDG9AwsR39j4v/EhlaqCOA8XBGZVaSZP37uqcmxtI3o+8c87a59x99l3v3+y19lrftT7Z59fdG0H+RAFRYFIFcOy/aK1PbAG8BwDeAgCHiHaiQMkK/AmJngaAn1lr7yt5rtzu9wGkqfU9CLAqtxcxEAVcKEA0RETnJEmyzYU7Fz5eAUTgcCGn+OAqgABPjY6Onjo8PPxfXF8u7NuAKKX+ERC/5MKh+BAFHChwpzXmXAd+2C52A6L1rwDgcLY3cSAKOFKghbhsOI4HHbkr7Aa11qsI4J7CHsRQFChHgXXWmI+V4zq7V1RKrQXEa7KbyEhRoHwFCGAwMWZZ+TPtfwYBpNsVkPknVMAbQOQSSzrUUwX8uMQaGBg4bNfIyK89FUnC6lEFEOAMY8yGbqfffoqltb6KAK7vdjAyvyjQVgDx+zaOP+CDGq+8KFRK/QAQ3+9DUBJDTyvwdAPxlDiOn/FBhVcAGRgYmL1zZGQTAiz1ITCJoScV+G2r0VgxPDS02Zfs9/kWK4qiI1tEGwFgASdAAvinxJibOT7Etj4KNLW+FAFuYkbcAqKV1tofMf04NR/3NW//okWLGq1WCslc1kxEZ1pr5QUkS0T/jZVSZwLi99iREp1rrb2T7cexg3GApP6VUu8CxBSSAznzNRBPjOP4UY4PsfVXgSiKTmgR/YwbIQJcZozhrkDcMCa0nxCQDiSrAfG73Flbo6Nv9uXLTG4uYv+qAv39/Uc0+vqe5WpCAJ9LjFnD9VOW/aSApBNqrS8mgK9wJieA38yZNeuIwcHBHRw/YuuPAkuWLJm5c+fOZwng9ayoEL9h4/gjLB8lG+8XkHTuptbXIsCnmXEYa0zE9CHmniigtDbplTgrHKJ7rbWns3xUYDwlIO3LrSi6FYh4X1YS3W+tXVFBTjJFiQqoKLofiE5jTvHQAdOmrdyyZctLTD+lm2cCpAPJ94DoTE5EBPC1xJgLOT7EtnsKaK2/RgAXMCN4fKSvb+XjP/85+/6FGUcm88yAaK0PIqJNgHhyJs+TDSK62lorn7WwRKzeWEXR1UD0WebMz1GrtTJJkpjppzLzzICkEWmtDyeA9PFvkxMhApxjjPk2x4fYVqeAUuocQLyDOeOOzovAnzD9VGqeC5A0siiKmp237ayf6FKrdXKSJA9Wmq1MlluB/ij6mwbRT3MbjjFAgNXGmLu4fqq2zw1IGmAzik7G3Z+kvIYTcANxQRzHT3J8iG15CiilFgLiVu4MBHBxYswtXD/dsC8ESBqoo08M/tDXaBw9NDT0QjeSlzknV6DZbM7FRuMXADCLpRPRWmvttSwfXTQuDEjnnuRCAvgqM/5ts2fNOnZwcHCE6UfMHSkwf/786TNmzkxXjqM5LhHgFmPMxRwf3bZlAdKB5FME8BlmIj+1xixn+hBzRwoopR7gPq0kgLsSY1Y7CqlrbtiAtC+3tP4yAHyClQXiHTaOz2P5EGO2Ak2t70SAf2A6+snsWbNWhvB5kRNAOpCkHzay/sdAgH82xnA/a2HWtnfNVRRdB0S8DwcR49Fdu1Zu3br1uRCUdAZI+7r1oIM2AdG7WMIgXmDjeD3LhxjnVkBrzb6fRIBnafePnh7PHYCnBs4ASfNrP/lIf0eCuIiVL9H7rLU/ZPkQ48wKNKPo/Uj0g8wGEw98CQFWGmMeYvrxytwpIJ2b9gWdt+1HsjIlOsla+wjLhxhPqUBz0aK/wlaLvQcuIZ6exPG9U05YswHOAUnzj6Joaedt+xyGHv8HRE1r7X8wfIjpfhQ4dtGiY/parWEAmMYSiugj1tpvsHx4alwKIO3LLTfL9jPUah2XJMmLnupX27DeMTDw+ukjI1sA4C85SSDAGmPM5zg+fLYtDZA0aaXU+YDIveF+xBpzks8i1i22VatW9W3fvv1hQDyeEzsB3JQYcxnHh++2pQLSuSdh79qIAHcbY87yXcy6xOfoNDFvDrkpU/fSAelAcmO6VxYzkRutMZczffS8uVLqZkC8hCUE4o9sHK8EgBbLTw2MKwGkfU/i4g0t0SettV+sga5ehtjU+koE4N0vEG1GxBXGmN96maTjoCoDBAAaSutNAHAqKwei86y13B/vsEKoo7HW+kMEcBsz9nTf3BVxHKfHNvfEX5WAwMKFCw+dNn36RiBawlKX6L2+bVHJyqdkY631SgLgvnj1bt/ckmVru68UkHRCpdTb07ftBHAUJ0FqtY5PkuQxjo9esNVan0gA3BeuXu6bW0X9Kgekc9OeFi39ReJfMJJ8vjU6unR4ePg/GT6CNtVaH00ADwPAIaxEPd03l5VTRuOuAJLG1h9FKxq7f7Zb/I9oaNeuXcufeOKJ3xV3Eqal1vp1BJD+lpy7wYa3++ZWUbmuAZIm14yi85Dom8xEN1pj/pbpIzhzpXV6jADrgYjv++ZWUbSuAtK5J7kcEL/ASrYGe7yy8stprJT6JiDyfnwmmnbnJn2iWmutbyCAK3L2wb7DEa+3cXw1y0cAxkqpzwPiJ1mp1GTfXFaOGY27voLsiVNrfTsBfDBj3BMPQ7zUxvGXWD5qbKyU4q/GALXZN7eKUnkDSPtyS+v0WX36CUPhP0I8O4nj7xR2UFNDpdS5gPgtZvi12jeXmWsmc68AOWbJkj8/cOfO9MnWOzNFP8kgQjwlieMfc3zUyVYpdRog3s+MuXb75jLzzWTuFSBpxP39/W9t9PWlkMzPlMHEg37XajSWDw8NDTF81MK02WwuwUYjfZx7MCPgWu6by8g3s6l3gLQvtZQ6rvO2nXOC0RMjfX0r6rLNfuaK7TWw859J+jj3bUXs99jUdd9cTs5Zbb0EJA1ea/2eztt2zs9BH5o5Y8aKRx999H+yClKXcQsWLHjtAdOnpx9/8i5Ha7xvbhW18haQNPlmFJ2NRKxjEghgQ2LMGVWIWeUcSuv7AID3grTm++ZWobfXgLQvt6LoEiC6mSnGOmsM7wg5ZgAuzZXW6QYJH+b4DGHfXE7+WW29B6RzT/JZQGS9BEz3D06MuSarML6Oa2p9PQJcxYkvlH1zORpkta0FIB1Ivg6IrCOD63xORfuSU+tLEeCmrMWdZFww++YydchkXhtAOg2yAQFYRwc3EM+K4/juTOp4NMjF/RgEtm9uFeWpFSADAwOzd42MpO9IljHEebnzs9EHGD4qNY2i6JQWUfo4t1F04hD3zS2qRR67WgGSJrZw8eI3TxsdTSFZmCfRMWN/3YEkYfioxDSKosWt9HRhgDcwJgxy31yGHplNawdI+1Kr2Yyw0UgheVPmTMcORHzQxjHvSOvCk2cznDdv3oGz58zZnD7My2Yx8ahQ983laJLVtpaApMkppZZ33rbPyJrsOEYAvP61nNb6yvRHS0Xza9sFvG8uS5eMxrUFJM1Pa30WAfxrxlzHDUOAp4wx7yhqX7ad1vpJAjim6Dyh75tbVJc8drUGpH25pfXHEeBf8iS991gEmGuM+e+i9mXZaa3fSADPF/XfC/vmFtUmj13tAWlfbkXRWiAq9BKwhbhsOI7Z52PkET3L2P4oWtogKnoYTU/sm5tFR+6YIADpQHIrEOX+nCQ4QHpo31xu82exDwaQzo373YD4gSyJ7xkTFCA9tm9unjoXHRsaIGsBMdelVkiANBCP7qV9c4s2fR47ASSgexBrTFD1zNPIZY0NSlClVE+vIAKIe0wEEFlB3HdVQB4FEAEkoHZ2n4oAIoC476qAPAogAkhA7ew+FQFEAHHfVQF5FEAEkIDa2X0qAogA4r6rAvIogAggAbWz+1QEEAHEfVcF5FEAEUACamf3qQggAoj7rgrIowAigATUzu5TEUAEEPddFZBHAUQACaid3acigAgg7rsqII8CiADSbud0W9eRkZELWwDLA+rvTKkg0aettY9MNFgAEUDSTfjSH5pdCACHZOqoMAdtHB0ZuWjr1q3P7Z2eANLjgCil3geI94bZ8zmz2r0jzHsFkL0UCGnThrw/uVVKLQTE9LjsuTlbKdzhRF+w1l6xJ0FZQXp4BVFKrQHE68Lt9kKZbbfGzBNAOgr09AoSRf8ORH9dqI0CNqJW69AkSV5MU5QVpJdXEK0p4D4vnNre/2kKID0MSFPrexBgVeFOCtSwNTr62uHh4d/LCgIAPX2JpdT5gLg+0D4vlBYCDBtjmnIPIvcg6fkqBxHRA4B4fKFuCtCIAD6aGPN1AUQAaSsQRVGzRfQwABwcYL/nS4noVmvtx+U9iLwH2adxlFKnQqNxPhCdlq+jghn9PBDdZq1dOzYjuUnv4Zv0sc2QgkKISxHgDQRwKAAcEAwCYxJBgN8D0W8A4AVEXD/ZKWMCiAASKgNO8hJABBAnjRSqEwFEAAm1t53kJYAIIE4aKVQnAogAEmpvO8lLABFAnDRSqE4EEAEk1N52kpcAIoA4aaRQnQggAkiove0kLwFEAHHSSKE6EUAEkFB720leAogA4qSRQnUigAggofa2k7wEEAHESSOF6kQAEUBC7W0neQkgAoiTRgrViQAigITa207yEkAEECeNFKoTAUQACbW3neQlgAggThopVCcCiAASam87yUsAEUCcNFKoTgQQASTU3naSlwAigDhppFCdCCACSKi97SQvAUQAcdJIoToRQASQUHvbSV4CiAAyrpGaUfRuJFpNAG9y0mV+OrkPiX5srf3l/sITQASQV/pDKaUJ8UYEWOpnT5cQFdFF1tqvTuZZABFA2r2RwgGIcQkt6L1LArg4MeaWiQIVQASQ3YBE0XogOt/7bi4nwBeA6J0TXW4JIAIIvO2EE2a9ZseOl8rpvXp4JYAbEmOuGhutACKAwLGLFx/VNzr6dD1auZwoCeCuxJjVAsgYBXr5lNs9UvRH0dIG0UPltF49vBLAYGLMMgFEABnXsVEUHdki2l6PVi4nSgK4PTHmwwKIADKuw+bNm3fg7DlzngGAueW0Xw28El0rh3hOUCe5xNotilJqLSBeU4NWLiPELTtefvmkbdu27ZQVRFaQCRtMa/1GAvghAAyU0YEe+/xTC/Gs4TjeNFGM8hRLnmLt0xdK6y8CwGUeN7TL0Cy1WhclSfLYZE57HhAEOMMYs8Gl6i58FXmyZI1xUk+ttSLES4joMBe5+OijAbDBGLNuqticCDrVJFX9e9HraB8h6SYgVdWrDvMIIJ0q+QaJAOIHPkEBorVeRQD3FJXWJ0gEkKJVdGsXGiCvI4AXORL5AokAwqmiO9ugAEll0VpvJIAVHIl8gEQA4VTQnW2IgAwQwMMAMJ0jU7chEUA41XNnGxwgqTRFn2aNlbWbkAgg7pqc4ylIQDqXWp8hgE9xxEltuwWJAMKtnBv7YAFpryRRdB0QreFK1Q1IBBBu1dzYBw1IZyW5gQCu4MpVNSQCCLdibuyDB6S9kjj6vqhKSAQQNw3O9dITgHRu3G8GxEscCFbJt1sCCLdSbux7BpDOSvJlAPgEV7oqVhIBhFslN/Y9BUhnJbkFEC9iyvfHVqOxfHhoaDPTz6TmAkhZyubz23OApPI0tV6HAB/NJ9WY0USbd+zYsXzbtm1/ZPmZxFgAKUPV/D57EpDOI2D2Rmn725Evfyn2tRBAuAq6se9ZQDoryW0I8KHCUu7e/PiUwvb7MRRAylA1v8+eBqSzknwLiM7NL91uC1e/4hs7vwBStCJu7XoekFROrfW3CeDs3NIiPmbj+PjcdhkMBJAMIlUwRADpiKy0/i4AjNt6cooarLPGfKyMOgkgZaia36cAspdmWuu7CODvsspIrdbJSZI8mHV8nnECSB61yhsrgIzRVmn9fQA4Y0rJEa+3cXz1lOMKDhBACgrn2EwAmUDQKb7d+l9A/EqZcKQhCSCOO72gOwFkEuGaUfT3QPTu9B4eAdJdBw0AmD7EO+M4frKg3pnNBJDMUpU6UAApVd7izgWQ4tq5tBRAXKrp0JcA4lBMhisBhCFemaYCSJnqZvctgGTXqtKR3QREzkl/tdQCSKVtn32ybgAi56SPr48Akr1nKx1ZNSByTnoPnJNeaQeXPFnlgMg56eGfk15yz1bqvkpABgYGZu8aGflDpQl6NhkCfN4Yc+XYsOQSy7NC7QmnSkCazeZ8bDSe8lSKSsIigA2JMeM+MRJAKpE//yRVAqKUOg4QJz2GLH/0NbRA/Dcbx+mXE/v8CSCe1rJKQLTWhxPArzyVopqwiNZbay8QQKqRmz1LlYDMnz9/+oyZM5+Vc9LtWgGE3brVOKgSkDQjVzviV6OO81l645x057J10WHVgMg56T1wTnoX+9n51FUDsicBV/sYOxekHIe9dU56ORp2x2u3AEmzlXPSX625PMXqTv9POWs3AZkyuB4aIIB4WmwBxI/CCCB+1GFcFAKIH4URQPyogwDiaR0EEE8LIyuIH4URQPyog6wgntZBAPG0MLKC+FEYAcSPOsgK4mkdBBBPCyMriB+FEUD8qIOsIJ7WQQDxtDCygvhRGAHEjzrICuJpHQQQTwsjK4gfhRFA/KjDuCi01m8hgF/mCa+s8xLzxBDaWAHE44oqrdOfwR6RJUQCGEyMWZZlrIzJroAAkl2rykdqrW8ngA9mnPhGa8zlGcfKsIwKCCAZherGsM7PYJ/PMPcvrDFvzzBOhuRUQADJKVjVwzNsprDdGjOv6rh6ZT4BpAaV7u/v/7PGtGnXENHpCHBYJ+QXCOCOxJg1NUihtiEKIDUr3bGLFx81bXT0YGOMrVnotQxXAKll2SToqhT4f6XVFF8Ue6I7AAAAAElFTkSuQmCC;" vertex="1" parent="1">
          <mxGeometry x="310" y="650" width="50" height="50" as="geometry" />
        </mxCell>
        <mxCell id="RJD5OzlgK-uC3pti9mqh-67" value="" style="edgeStyle=orthogonalEdgeStyle;rounded=0;orthogonalLoop=1;jettySize=auto;html=1;fontSize=11;" edge="1" parent="1" source="RJD5OzlgK-uC3pti9mqh-34" target="RJD5OzlgK-uC3pti9mqh-31">
          <mxGeometry relative="1" as="geometry" />
        </mxCell>
        <mxCell id="RJD5OzlgK-uC3pti9mqh-34" value="" style="shape=card;whiteSpace=wrap;html=1;fontSize=12;strokeWidth=2;" vertex="1" parent="1">
          <mxGeometry x="420" y="640" width="50" height="70" as="geometry" />
        </mxCell>
        <mxCell id="RJD5OzlgK-uC3pti9mqh-35" value="&lt;font style=&quot;font-size: 11px&quot;&gt;统计&lt;br&gt;缓存&lt;/font&gt;" style="text;html=1;align=center;verticalAlign=middle;resizable=0;points=[];autosize=1;strokeColor=none;fillColor=none;fontSize=10;" vertex="1" parent="1">
          <mxGeometry x="425" y="665" width="40" height="30" as="geometry" />
        </mxCell>
        <mxCell id="RJD5OzlgK-uC3pti9mqh-39" value="" style="shape=curlyBracket;whiteSpace=wrap;html=1;rounded=1;fontSize=11;strokeWidth=2;" vertex="1" parent="1">
          <mxGeometry x="142" y="675" width="20" height="205" as="geometry" />
        </mxCell>
        <mxCell id="RJD5OzlgK-uC3pti9mqh-85" value="" style="edgeStyle=orthogonalEdgeStyle;rounded=0;orthogonalLoop=1;jettySize=auto;html=1;fontSize=11;" edge="1" parent="1">
          <mxGeometry relative="1" as="geometry">
            <mxPoint x="22" y="777.5" as="sourcePoint" />
            <mxPoint x="102" y="777.5" as="targetPoint" />
          </mxGeometry>
        </mxCell>
        <mxCell id="RJD5OzlgK-uC3pti9mqh-41" value="monitor协程" style="rounded=1;whiteSpace=wrap;html=1;fontSize=11;strokeWidth=2;" vertex="1" parent="1">
          <mxGeometry x="3" y="762.5" width="70" height="30" as="geometry" />
        </mxCell>
        <mxCell id="RJD5OzlgK-uC3pti9mqh-42" value="" style="shape=image;verticalLabelPosition=bottom;labelBackgroundColor=default;verticalAlign=top;aspect=fixed;imageAspect=0;image=data:image/png,iVBORw0KGgoAAAANSUhEUgAAAMgAAADICAYAAACtWK6eAAAAAXNSR0IArs4c6QAAIABJREFUeF7tfQuYZUV17lr7nJ4xGhjxBRpBnCAoSjNdtbt7HpiAiQKCRsDBR1BEDCZXRUDkRnPvFW+MUUReEhOJGIPxxUTRAYlKUGKAofvsVT3TylyD4yigJmgEhhGY6e6z1/1Wu3tsmpnpqtp7n7P3OVXf11/3wFpVq/7a/6mzq9YDIbSAQEBgjwhgwCYgEBDYMwKBIOHpCAjsBYFAkPB4BAQCQcIzEBDwQyDsIH64Ba0+QSAQpE8WOkzTD4FAED/cglafIBAI0icLHabph0AgiB9uQatPEAgE6ZOFDtP0QyAQxA+3oNUnCASCdHmhtdZPBIBlzPzk7LesybYlS5Y8BAAPjY2Nye/QuoRAIEgJwB9xxBH7DQwMjALAyiiKlsmDP58E2b9nCQEAAxYmzJJFiIOID6Vp+jNE/AEz3yW/p6en75qcnPy5RT9BxBGBQBBHwHYnPjQ0FCOiEGIUEYcB4PkFdOvaxbY5wjDzDwDgO4h4BxE94tpRkP8NAoEgjk/DihUrDm42mzEzy49GxBgAZDeoZGPm2xHxO8zcajQarVardW8lDa2oUYEgFgszPDy8Ok3TkwHgWAB4kYVKlUUmACBh5psfeuihr2zZsmVnlY3ttm2BIHtYgaGhoWc1Go2TmVmIcUy3F6qk8bcCwFcA4DoiurWkMWrdbSDIguVTSp0YRdEcMeQlul+aEOQ6RPxKkiRCnNAAIBAEAOI4flG2U8hucWSfPxk7hSRpmv6TMeaGPseivwkSx/EbM2L8Ub8/CLubPyJen6bpVf1MlL7cQeI4PoWZ3wkALw7EWByBfiZKXxFEKSWEeCcinrL4YxEkFiLQj0TpC4LEcXxYtmP8WXjs8yPAzOsB4GJjzL/n763aPfQ0QcTlY+nSpecz83srtgy/AoD7AeAB+c3M9yOi/Fv+nkHEJ8gPMz8BAH5r3t/y7+UAcHAV5oOIl01PT1+8adOmn1bBnjJs6FmCaK3PB4APAMDSMoCz6PP7cnst7h6IuKndbj/QbDbvf/jhh+/fvHnzlIX+HkUGBweftHTp0sPb7fYLoyg6nJlfCACHd4k4dwPAR4noY3nmVFXdniNIHMdnMrMQ44AOgn4PM29ExI0AMN5oNO4YHx//ZQfHnx1Ka70MEdcw81FzvwEg6pAd386I8rUOjdeRYXqKIFrrtQBwbQeQu5eZvwoAdzQajY2tVuvODozpPMTo6Oi+09PTqwBgFSKuzFxlnPtxVLgaAP6ciP7bUa+S4j1DkDiOX87MZX567UBEIcVXp6am1k9OTj5cyRXdi1FDQ0OHR1H0SmZ+BSKuLtF+YuZze+ElvmcIorX+BwB4UwmL/i0hRbvdXr9x48Yfl9B/V7rMHDBfAQDyI+8wRbdHMpJcVXTHneyvJwgiLuiNRuNHBQL3XSFFFEXrxT+8wH4r2VXmf3aW7CxFGygnXUmSnFt0v53qrycIEsfx0cwsL4m5GiLeDABXJEki5/x910okyjey3eT/1Q3UQJBfr9gkIgox5AWz71tJRLmbmc8zxny5TgD3BEFWrVr1lKmpKZ9j1f+UHWPJkiWXb9iw4dE6LVwnbBWiIOLZAPDSAsc7h4guL7C/UrvqCYIIQlrrfwKAP7ZEa0aIAQCXE9E9ljp9KxbH8duZ+QIAOLAgEORiUS5yK996hiDZEabcgez1RIaZPyPEMMZQ5VenQgYODw8f2G63L0DEtxdk1rVE9JqC+iqtm54hiCAkJEHET2eZRRaCNsbMFxpjvl4amn3QcRzHL2XmdxfxtQsRNyRJUuZ9TO4V6SmCzKEhp1ppmh499+8oiv45SZLv5UYrdLALgTiOL2DmDxcAyb1EdFAB/ZTSRU8SpBSkQqePQyCOY7mVvzTzMM6FEBFV8lmspFG5kA7KHUVgZGTk0Ha7LSR5ec6Bv0dER+Tso3D1QJDCIe3PDrXWHwWA83LO/vNE9PqcfRSqHghSKJz93ZlS6ixE/BsAaOZA4n1E9H9z6BeqGghSKJyhs+xyURxHn+aLRuaWcpmvfpF6XSHI6Ojos2dmZlZlkXC75hNF0W1JktxU5ARDX51HQCklOYu/AACH+I6OiGcmSfIpX/2i9DpCkKGhoVWNRmMlM0vwzggAPGcvE5DcsZ9M03TdxMTEL4qaaOin8wjEcdySJN++IzPzKd323SqcILI7tNttIYMAI6UA5GcfD5AkpvsMY8wdHrpBpSIIxHG8PocbvTg4Hm+M6ZoXcG6CiKPgzp07j0fE38/IsKLAtfk5M7/RGPONAvsMXXUYAaXU+xDxQs9hv0FEx3nq5lbLRRCl1HsR8V0A8JTcluy5A3EsfBURlRlOW6L5oWtBQCn1d4j4Vh80uhl05U0QpdQZiNipl6jPEZGtp67PGgSdDiCgtZZSC155kJn5rcaYjofvehNEay1lvrxPKTzWY5CIJBQ2tBojoLWWd0opV+faJMb9uE4ngvAiSBzHxzPzja4zzCn/ISJ6T84+gnqXERgZGXluu92+BQB8HBQlROG4TqYU8iKIUupCRHxfh7GeJKJ+r93RYcjLGU4p9RJE/BcAWOIxwtVE9BYPPS+VOhFEJvgsIpIw2dBqjkDmlvIJz2mc2KlDGy+CaK3/FAD+1nNy3mqIeEKSJJ3+audtb1DcOwI5HBy/TUQv6QS+XgTJXEU6Xk6Ymf/CGPPBTgATxugMAlprOb73cZU/uxMJs70IItAppT6PiK/tDIy7RllHRKd2eMwwXIkIZPEk8j4iZR1c2t0zMzNryi694E0QmYnW+iMAsFh2ii0FHgf/gIgOdUExyFYfgSwyUfIeO7VOXCDmIojMJstqKFnVpT4FIOJ2Zh6XcgDZv693mvXiwuFFfXGMaifhG+POzL9X5t1IboLsbSW01pJF76QiV0sc3/q56mqRWFatL631N12zpUg5OGOM1+28zfxLI4hS6lhELDzFDjO/3xjj6/hmg0mQ6RICWUohIYlTK/NDszSCxHH8BWYuPDGYVFpNkuSVTggG4dogoJT6mGtyujKfiVIIorU+BgCkrkYZ7SdEVFQKzDLsC33mQEAyOKZpeptrmtOydpGyCOKSJ9cHzvCi7oNaTXSyXMBORUHL2kUKJ4jW+igAcK2ffSsAiJ5VK+vTwmrwINQRBDxf2As/wCmDIM6l0MTXHxGt/XLCi3pHntGuDpJlR3G6IihjFymUIFpr8fN3jSG/k5lPR8TEdkUCQWyRqrecTzx70d8uiibI3wOAkysyM59mjPmsSyBNLxJEa/00RJw9fGBmSejcE2WU81DUcxf5YpIkhblAFUYQpdQhiChRhi7tLiI6TBRcYkwQ8ZgkSSTopnYtjuM1aZpKxaYDM0JI4JAQ44kLJvMIAIhD6D1CGPndaDRu7IeiovNx8NhFdiLi4UmSbC3i4SiSIG9DxCtdjJKqRcYY8ecSvy6rr2fM3DLGSG6tWrQ4jg9L0/QPAeAYRJSSDE/NabjkChMPWPmAuJWIfpizv0qr++wiAPAuIrqkiIkVRhAPpv+IiB7jwamUOgcRJVP4ntqDWcjlWBGTL7OPOI7fwMz/AwBWljmOvPMh4seTJJHKWT3ZPJ4t+eB4cRFgFEKQoaGh50RR9GMXg/YU2xHH8euyB+sxx77ic4OI/0BEkhmjsm1oaOgPoig6BwBO7LCRN6RpetnExISUsu6p5rmLvJiI5PogVyuEIB7hkz9ZsmTJkRs2bLh/T9ZLObVGo/EM+f9TU1ObJycnf55rpiUrK6VeIMRg5rNKHmqv3SPiVUKUbmYjLGP+WmupELbX+pMLxr2EiCRnW65WCEG01jcAwAm2lvTaKVR2wCC7xjJbDEqW28bMQpKecerUWv81APy5A25bt23bdviWLVt2Oug8TjQ3QbTWzwSAn7kYEUXRmlardbuLTkVlI6313wHAn1TUvuuWL1++dt26de2K2mdt1vDw8OrMR8tah5lfa4z5orXCbgSLIIjce8j9h227k4heZCtcVbnMqW6dZxK0Tk5LTrlO6oWke0qp2xDRpSruJ4ko14dXboIopW5CRDnGtG21KSK/pwkppVZKCWPbCVdBTkIPjDFSR762TWstX7Hkq5Zt+y4RDdoK704uF0Hk9hcAnGp4ZOkja5ut3eVCM8/ClKFb93c/ObiJouhOF2wajcby8fHxH7nozJfNSxA555eadLbtQSKSi7LUVqFKckqpUxEx13fabs9HihjVueaK1lo+XF9mi+OcK5Ot/EK5XARRSl2DiG9wGPyzRHSag3xlRLXWUqJ4sgSD7mPme8SVJPuRIcT95CBElN/7Fz1mFEUHtVqtjuc1K2IeWuu/BID/ZduXFBVNkuTttvKFEkRrvQkArL/jIeLrkiSR2nW1amvXrm1s3br1PwDgdwswXHysvg0AN9qUmRsZGXlqmqYnMLMco8vPkwqwYYyI5GW3dju5a4og8RJPkkSqnHm1XDuI1ppdRm02m8vGxsYectGpgmxB2Vnkoutv0jT9km/tRanmNTU1JYnz3gYAeU8C/56Iunqp6bO2K1aseHKj0fglAES2+tPT0789OTn5sK38fDlvgiilBhFRdhDbdgsRSax6rVoBL+XijXulbPVEJLtH7qa1fiIzi3OofHXwKSMwawMzX2iMeX9ugzrcgUtohJiGiC/zrZ7sTZDMGe8aW2yY+VJjzHm28lWQE/eR7DjX94b8Y81m86/GxsbuK2M+o6Oj+8/MzHwIAN7k2b/cuMtLe9eKZPrYHcfxpcwsngtWLc/pnTdBLNOO7poAM7/BGCPJHGrT4jj+hK9vVRG3uLZAub64zu9XfLeSJPGqHWhrX9FyWutXAcB1Dv16l/DLQxCn47Y0TV84MTGx2WFSXRXNvHL/1ceIbpwSeXzl3TU1iVepkxdw9h7ygO3a5IkhykOQ/3I4gtxJRE+wnVAV5LTWkjDA2WWdmY80xpRxHLwoLJn7ixwXu7YbiOgVrkrdlNday+XfwZY2bCOiJ1vKPkbMiyDZd18hiFWT7/FJkrj40Fj1W5aQ6/vVPDs+QET/uyy7bPpVSr0GEZ2P0hHxjXUKunKtKzI9Pb2/T8iEF0G01nKT6eIu8nEikqPJWjSttfhZuUYCfpqIzqjCBLXWVwDAOxxtuYOIVjnqdE08juOLmPndDgZ4BVD5EkRqgszGkts0RHxLkiRX28h2W0ZrLZeBUtPEpd3TbDZHyjqtcjFEZLMdftz1CBgRn58kiVyIVr4ppd4kEaa2hjLzm40x1vJz/foS5GIJjLc1TnIyEJFxkO+aqNb6dAD4tIsB85NPuOiVKauUejciXuQyBjO/3Rjj4lvn0n2hssPDw8NpmsqHgG3zKiPuRRCl1NWI+GZby4jIaxzb/ouU01q7ZoaUG/LRoi4Bi5qLXCYCgCS3sL5xZ+YvGWNeXZQNZfYzODj4pIGBgV/ZjuE7N68H19H1YjsR7Ws7kW7Laa0l9v3pDnb8GRFJVGHlmkc14l8SkYQw1KK5nGT5HhT5EkSc7STHk037KRE920aw2zIe2/bDS5YsOWhvySe6OaehoaGnZ9lmFial26NZiHhUkiRSfqDyTWstGVxsy0F7RbL6EkTqDx5pieD3iegFlrJdFfPwu7qWiAovElQkCL2cUMPxqNerrowvQe52OCEZJyLJmlj55vpuhYinJ0li7Y/WDQC01k5Bbcz8KWPMmd2w1XXMOI6/xMwnW+o9RETOPnW+BBGX9X1sDEPEm5MkcYlZt+m2FBnXmhSNRuNp4+Pj4npd2ZZ9zXLJKXYTEVlH7HVz4lrrzwLA621t8DkscibI0Ucf3dy+ffu0rVHiVEZEtix36LZ4Ua319wFgNpm2RbuPiA6wkOu6iNbaxS3oP4jo+V032sIArfUnAcB6t/OJR3ImiMcn0jVEJHcLlW9aawmqsXqhzeMA12kglFLjiGgbVfcIERURtVj6NOM4vlLiYmwHajabB46Njf3EVl7knAkyMjJyaLvdtr5tzRsT7DKZPLKuGVp8z9Xz2Oirq5T6Z0Q8xUH/6XWoT6K1drqw9vEodyaIbZmCeYvx10T0XofF6YpoHMdDzGx921+nADCl1CWIeK4tsIiokiSZsJXvlpxS6gOI+Be246dpunpiYsIpn5kzQYaGhlZFUWSdNpSZ/8oYY52FwnayRcsFgvwG0boQRGv9QQB4j8OzsJKInEpn+BDENXlXLTIphq9Yj3nMavEVy/UdpNFoHDY+Pn6XA6Hc30FGR0efPTMzY51TqS7vIAJaeEmffXRq85Kutf5HAHij7QOfpukzXDPKOO8go6Oj+87MzGyzNQoAriYip8KeDn0XKhqOeWfhrNMx75clMbftQ7DPPvsM3HLLLTO28l6nWNknrUs+LO+AeZeJFCEbLgpnUazNRWEcx//KzH9gufZeTrPOO0hGENlBrDx0EfHLSZK4HDFazrd4seBqMpsrqzauJlpreeG2Leh6DxE9x/Wp8SWIvIPYeujeSETW1adcJ1CkfHBWnCXI++tSmUprLfm8bG/9NxHRCtfnxZcgLvXivkVEttugq/2Fygd399kshHVyd5db8d+xfAi8Mnt6ESSO49slI5+lYT8moudaynZdLARM1Spgytpp1tcn0Isgrq4LeZIHd5oxIeS2HiG3rodFvu9WXgRxrTgaRdFIq9Vqdfph9xkvJG2oR9IGrbUCAHJYY68Lay+CKKXOQMRP2RrHzGcYY5wyhdj2XbRcSPtTj7Q/cRyfyczi7m7b3k1E4tzo1LwIorU+CgD+3XYkRPxIkiQX2Mp3Wy4kjuv2Ciw+vtZa0hNJtKRtO5aIvmkrPCfnRZDBwcFnDAwMuKT0r81RrwATUo+6Pkadl3c8KIJms3mAT2I/L4JkL0gPAoBtjG+tTrKy+YXk1Z1/7q1H1FrvAICllgre0Z/eBHGMUpN5PJmIXHy4LOdejlgof1AOrkX06lEO+ptEdKzP2N4EcQ2YR8QTkiS50cfIbumEAjrdQn7v4yqlTkPEzzhYdzERuSS63tW1N0E83DJqEVk4H/RQgs3hEeygqEeEpHdphzwEeYmk9LHFBRG/kyTJ79vKV0XO44NgoelVLuJZG7+r+aBqrV0ye4p/mXdRI2+CZMmRXUrrps1mc79QBjqUgc7z4edafk3G8smHleuYd05ZKXUbIlpXjmLm44wxLoV38mBZmO7atWsbW7dulUwuUjskb5NS0PIJeGOapusWi3AbGRl5apqmJzCzeETLTxEpecaISNYtzTuZTuu7XlIDwCQR2abJfdx0vHcQ6cnV5aROrtQLkdJaHyFgl/BA3MfMUldw7keGkNrnByGi/N6/6DG7UWS0qDloraW6rVS5tWrM/BljjHVY7sJOcxFEKXUyIn7JytJfC32DiI5zkK+UqFLqVET8YqWMcjQmq4t+h6NaVcQjrbVUt7UK1hOj8xYFykUQn6qqPsm7qrI6YkcBL+1dm06dd/AMe9cPZIii6JmtVsu64GyhO0j2NUuSrQ05rPp7iOhDDvKVE1VKrZSCLJUzbC8GMfNrjDHX1snmhbZqrf8WAP7UYQ63EZH4DXq3XDtIRpCrAOBPbC1g5tuNMWts5asql+2e66T8WlVtzOz6oWT+IKLvVtzORc3TWstByaGLCmYCiHhekiSX2srvTi43QXzqckdRtKbVallnZ8wzwZJ15TuxlF+z/oAo2Z6F3V+3fPnytevWrWt3eNzCh1NKvVju0hw7fg4RyeGHd8tNkEMOOWTpsmXLNgPAcgcrvCqOOvTfUVGl1Puy3Le2zptl27eNmS+rS/IFGzA83v28YtAX2pKbINnXrI8CwHk2E81kvOrFOfTfcVFxS4mi6BxmPqvjg88bEBGvStNUyCEZPyrbtNbPlJIMzPxsZt5mjJFiOLtta9as2WfHjh1S9s/6Q7io0txFEcQpgEpQYOZXGGNuqOwKehqWeQGfAwAnenbhq3aDEGNiYsLa/cd3oDx6SqmToih6224SvkmOqyuI6HML+3ctI5c9X88zxmzJY6voFkKQbBeRCEPrEwNEvD5JklfmnUBV9bOgK4l4W1myjXcg4seTJHHxbi3ZpN13Pzw8vDpNU/Ho3ttX0ceFxmqtXdJMyeCFZYcskiDyFUu+alm3Xt1F5gMQx/FhaZpKjcZjEFFKZz/VGqDdC/4CAL4GALcAwK1EJKdUtWhxHLeYObYwdleZgjiOX83Mclpo3Zj5XGPMZdYKexEsjCBxHC9nZnlZt43ykiRlPb2L7A73OI7XpGn6UgA4EBEPzNxK5PfC0m/isyUZLMUbWH7f22g0vlaX7DAL5+5y2snMFxpj3p99M3G9Z4N2u33oxo0bf1ApgogxcRx/QS6kXAzrh13EBg+pT5IRRt7P7q1DCTSbec3JaK2/DgBWUX1yCZskyWqttVTbdXVu/SQRFXbsXtgOIkAopU6UXcEFuH7cRVzw6RVZ14q04pIURdHVHu9wzlWk9oZxoQTJdpH1siu4LGzYRVzQqqes6z0GIr7FMe+VAFN4ReXCCeKzixR56lDPx6f3rdZaSyyL9bE+M/8bIjpFoDLz7xljrPO12aBeOEF8dxFEfEeSJFfaGB1k6ofA6Ojo/jMzM95etRYz/jwRvd5CzkmkFIJ47iL3Zj5a1vUPnWYahLuOgNb6xwDgXMTGxnA5Si/jkrQUgvjuIsx8pTHmHTaABJn6IaC1lvuMV5dg+ToiOrWEfou7SV9onOcuIncjL0uS5KYyJhv67C4CcRxfwMwfLtoKZj7eGCPHyIW30nYQsVQp9VVEdHUnKcxNoHC0Qoe5EPC811hszOuI6OTFhHz/f9kE8fHhl13kfyZJcpHvpIJeNREo40VdrgiiKHqCRLVK/isAOFi8FJhZMu5c5pPRfT56pRIkexe5lJnFu9WpIeIfJUmy3kkpCFceAa21uCO9oCBDty7mAs/MlxpjXEIxHmNa6QQ58sgjf6fZbN7mcXqxtdFoHD8+Pn5XQWCGbiqAgFLqGkR8QydNkUw0SZK81mfM0gkiRmmt5WTqCg8Da1VXxGN+faeitT4fAD7S6Ykj4jFJkogHtFPrCEEyknxLXL6drPu18CVE9C4PvaBSQQRKelG3manXRWInCeLkajB/xsz8VmOMZE8JreYIlPGibgmJV4x6xwiS7SJSdPFMywnNF5th5pN6MUTXA4vaq2itNwHAYIcnUguCPA0A5EJHe4Dz31nya5fSvx7DBJWyEXDN6VyQPV6ZdDq6g8hEs/xGQpKFEXQ2OGwhoufZCAaZ6iJQYiLwPU36F1nKWwlXdmodJ0hGkrMQ8RNOlmbCiJgkSTLsoxt0qoOAawm/PJYj4ulJklzj00dXCCKGxnHsdYEouiEK0Wepq6WTxYdIKYOBEi3bDgAfzJMLumsEEVBc4pQXgjg/sL9EgEPXJSIQx/FLpX5HwTVQvg8ARnJAt9vtr2zatOmneabQVYJkRTL/xeOWfXbOzPwJY4xLtu88WAXdEhDQWkvy708DwPM9ut8JAJLjeZyZJfuJKSJZ3Hw7ukqQ7H3EuebDAiC/SkTWFYc8FiGolIzA8PDwAWmavgkATl+EKHcLIRDx9jRNkx07dpjNmzdPlWle1wmSfdV6JwDkSfQ11mg0Xjc+Pv6jMsEKfZePgMQRySvq/JGiKPre9PT0hrxfl3ysrwRBMpJcDAB5XEokwdoZxhhxaQktIFAIApUhSEYSqf+XJ3RyipnfEdxSCnk2QidFJq8uCs04jm+XQpM5+wsOjjkBDOq/RqBSO8jcomitpSqQ5KvN025sNBrnhniSPBAG3UoSJPu6xQUsz1ap/BQiEwtAsk+7qCxBMpJI4ckX5V2bEOOeF8HH62utlXz4MLNk8/+ZZPbvxXe/ShMkI4lUHHpdAUt8EyJ+JKQUyoek1lruKuTOQmqdLGziaf1hInKq55HPonK1K0+QjCT/BwBm60XkbZKcrtFoXNRqtUIGRwcw4zh+OTOfbVnC4NReIUktCCLrqJQ6BxFz1bye9zzci4gXhVzAizNkeHhYCm2ezcynLS79G4lms3nA2NjYfS46VZStDUEEvDiO38zMUjOiqHYTM18RIhUfD+eKFSsOjqLobESUXaPhAfixeXNSeYxZuEqtCJLtJOK7dYmvg+PuEBT3+TRNrwpEARgcHHzSwMCAkEJ+DsjxxD2uGGeOvrqmWjuCZCR5QfZ1y6qkly26/UwUSaYwPT39akR8KwAcYYvZnuR6pZxFLQkytyh5gq729gD0E1GyNDyScf0UAHhKXmLM6TPzKcaYLxfVX7f6qTVBst1Ewnfl5d0nxn0x3O8EgOujKLq+1WpJ3EFPNKlInKbpKYgopJB4jKLbnY8++ujKzZs3/6rojjvdX+0JkpFEkmQLSXyypVhhLhFq2c6yfmJiQvLL1q4ppU7KSCHEkITPpbSsEFJPfKD0BEFklaWMMgB8yDPvluuD8k2JYkPE1szMzHc2btz4oGsHnZCXvMiNRkMJPBkxcnslWNj9TiLySTNr0XXnRXqGIHPQZckAJK7EJ82pzwqkANCS2t5SeLLdbt/SDcIcffTRze3bt8sOOksIAJDMLx1LzoaIX2+32xeXUQbNZ1GK0uk5gswjiiTMFqKUUhNvkQWQWnybEfHONE03NxqNO3fu3Ll5cnLy4TwLt3bt2sbWrVv3azQaT2m32/sBwO8CwAgzDyPiCAA08/TvqTsBAJcT0T966ldarWcJIqjLV4yBgYHzfeqTlLRqQhypabEDEXcw8w4AeHTub/k3IspDLqdJ+yHifsw8+3f23/YtyS6fbn+GiJc/+OCDl2/ZskWSJ/Rk62mCzK2YZHMEgPM9ysH15KLnnJR8pZT8AbJrSNxOT7e+IMg8opwYRdFZUrarp1e1vMl9Loqiy1qtVqu8IarVc18RJBDF7+FDxJvTNL2sH11x+pIggSjWRJFy3NcSkZSt6MvW1wRZQJTTmFkS0EmEXD83CXpaH0XR+lartbGfgZC5B4LMewLEBSPHsIjzAAABmklEQVQjyUkAcFQfPRxyurY+TVPxEri5j+a96FQDQfYAkdZaCCJEkV1l+aJI1k/gIURcz8zrt23btr6Xj2rzLE0gyCLoHXLIIUv33XffVyHiH2aOfbldwfMsWE7dXwLA2BwxiOg/c/bX8+qBII5LPDIy8tyZmZnVURRJcrtRZn5MHlnH7soW/yEASI16iqIoeeCBByjsFG6QB4K44fU4aYnAW7Jkyeo0TVcj4qHM/Dz5DQDLcnbtrC7Vt5j5NmbeIH8TkRAktBwIBILkAG9vqoODg88YGBjYRRghThRFz2JmcRcR8shvG9eRaQDYBgDiMSy/tyHirr/TNN0WRdGtjzzyyB29EH9R0nJ4dxsI4g1dMYqjo6OzRJmampolDiJKRsldJCCiR4oZKfTig0AgiA9qQadvEAgE6ZulDhP1QSAQxAe1oNM3CASC9M1Sh4n6IBAI4oNa0OkbBAJB+mapw0R9EAgE8UEt6PQNAoEgfbPUYaI+CASC+KAWdPoGgUCQvlnqMFEfBAJBfFALOn2DQCBI3yx1mKgPAv8fk4vejM4yeJUAAAAASUVORK5CYII=;" vertex="1" parent="1">
          <mxGeometry x="102" y="761.25" width="32.5" height="32.5" as="geometry" />
        </mxCell>
        <mxCell id="RJD5OzlgK-uC3pti9mqh-43" value="10s一次" style="text;html=1;align=center;verticalAlign=middle;resizable=0;points=[];autosize=1;strokeColor=none;fillColor=none;fontSize=11;" vertex="1" parent="1">
          <mxGeometry x="87.25" y="742.75" width="60" height="20" as="geometry" />
        </mxCell>
        <mxCell id="RJD5OzlgK-uC3pti9mqh-44" value="table_statistics_task" style="text;html=1;align=center;verticalAlign=middle;resizable=0;points=[];autosize=1;strokeColor=none;fillColor=none;fontSize=11;" vertex="1" parent="1">
          <mxGeometry x="170" y="865" width="120" height="20" as="geometry" />
        </mxCell>
        <mxCell id="RJD5OzlgK-uC3pti9mqh-45" value="" style="shape=curlyBracket;whiteSpace=wrap;html=1;rounded=1;flipH=1;fontSize=11;strokeWidth=2;" vertex="1" parent="1">
          <mxGeometry x="510" y="675" width="20" height="205" as="geometry" />
        </mxCell>
        <mxCell id="RJD5OzlgK-uC3pti9mqh-46" value="statistics" style="text;html=1;align=center;verticalAlign=middle;resizable=0;points=[];autosize=1;strokeColor=none;fillColor=none;fontSize=11;" vertex="1" parent="1">
          <mxGeometry x="415" y="865" width="60" height="20" as="geometry" />
        </mxCell>
        <mxCell id="RJD5OzlgK-uC3pti9mqh-47" value="" style="shape=image;verticalLabelPosition=bottom;labelBackgroundColor=default;verticalAlign=top;aspect=fixed;imageAspect=0;image=data:image/png,iVBORw0KGgoAAAANSUhEUgAAAMgAAADICAYAAACtWK6eAAAAAXNSR0IArs4c6QAAIABJREFUeF7tfQuYZUV17lr7nJ4xGhjxBRpBnCAoSjNdtbt7HpiAiQKCRsDBR1BEDCZXRUDkRnPvFW+MUUReEhOJGIPxxUTRAYlKUGKAofvsVT3TylyD4yigJmgEhhGY6e6z1/1Wu3tsmpnpqtp7n7P3OVXf11/3wFpVq/7a/6mzq9YDIbSAQEBgjwhgwCYgEBDYMwKBIOHpCAjsBYFAkPB4BAQCQcIzEBDwQyDsIH64Ba0+QSAQpE8WOkzTD4FAED/cglafIBAI0icLHabph0AgiB9uQatPEAgE6ZOFDtP0QyAQxA+3oNUnCASCdHmhtdZPBIBlzPzk7LesybYlS5Y8BAAPjY2Nye/QuoRAIEgJwB9xxBH7DQwMjALAyiiKlsmDP58E2b9nCQEAAxYmzJJFiIOID6Vp+jNE/AEz3yW/p6en75qcnPy5RT9BxBGBQBBHwHYnPjQ0FCOiEGIUEYcB4PkFdOvaxbY5wjDzDwDgO4h4BxE94tpRkP8NAoEgjk/DihUrDm42mzEzy49GxBgAZDeoZGPm2xHxO8zcajQarVardW8lDa2oUYEgFgszPDy8Ok3TkwHgWAB4kYVKlUUmACBh5psfeuihr2zZsmVnlY3ttm2BIHtYgaGhoWc1Go2TmVmIcUy3F6qk8bcCwFcA4DoiurWkMWrdbSDIguVTSp0YRdEcMeQlul+aEOQ6RPxKkiRCnNAAIBAEAOI4flG2U8hucWSfPxk7hSRpmv6TMeaGPseivwkSx/EbM2L8Ub8/CLubPyJen6bpVf1MlL7cQeI4PoWZ3wkALw7EWByBfiZKXxFEKSWEeCcinrL4YxEkFiLQj0TpC4LEcXxYtmP8WXjs8yPAzOsB4GJjzL/n763aPfQ0QcTlY+nSpecz83srtgy/AoD7AeAB+c3M9yOi/Fv+nkHEJ8gPMz8BAH5r3t/y7+UAcHAV5oOIl01PT1+8adOmn1bBnjJs6FmCaK3PB4APAMDSMoCz6PP7cnst7h6IuKndbj/QbDbvf/jhh+/fvHnzlIX+HkUGBweftHTp0sPb7fYLoyg6nJlfCACHd4k4dwPAR4noY3nmVFXdniNIHMdnMrMQ44AOgn4PM29ExI0AMN5oNO4YHx//ZQfHnx1Ka70MEdcw81FzvwEg6pAd386I8rUOjdeRYXqKIFrrtQBwbQeQu5eZvwoAdzQajY2tVuvODozpPMTo6Oi+09PTqwBgFSKuzFxlnPtxVLgaAP6ciP7bUa+S4j1DkDiOX87MZX567UBEIcVXp6am1k9OTj5cyRXdi1FDQ0OHR1H0SmZ+BSKuLtF+YuZze+ElvmcIorX+BwB4UwmL/i0hRbvdXr9x48Yfl9B/V7rMHDBfAQDyI+8wRbdHMpJcVXTHneyvJwgiLuiNRuNHBQL3XSFFFEXrxT+8wH4r2VXmf3aW7CxFGygnXUmSnFt0v53qrycIEsfx0cwsL4m5GiLeDABXJEki5/x910okyjey3eT/1Q3UQJBfr9gkIgox5AWz71tJRLmbmc8zxny5TgD3BEFWrVr1lKmpKZ9j1f+UHWPJkiWXb9iw4dE6LVwnbBWiIOLZAPDSAsc7h4guL7C/UrvqCYIIQlrrfwKAP7ZEa0aIAQCXE9E9ljp9KxbH8duZ+QIAOLAgEORiUS5yK996hiDZEabcgez1RIaZPyPEMMZQ5VenQgYODw8f2G63L0DEtxdk1rVE9JqC+iqtm54hiCAkJEHET2eZRRaCNsbMFxpjvl4amn3QcRzHL2XmdxfxtQsRNyRJUuZ9TO4V6SmCzKEhp1ppmh499+8oiv45SZLv5UYrdLALgTiOL2DmDxcAyb1EdFAB/ZTSRU8SpBSkQqePQyCOY7mVvzTzMM6FEBFV8lmspFG5kA7KHUVgZGTk0Ha7LSR5ec6Bv0dER+Tso3D1QJDCIe3PDrXWHwWA83LO/vNE9PqcfRSqHghSKJz93ZlS6ixE/BsAaOZA4n1E9H9z6BeqGghSKJyhs+xyURxHn+aLRuaWcpmvfpF6XSHI6Ojos2dmZlZlkXC75hNF0W1JktxU5ARDX51HQCklOYu/AACH+I6OiGcmSfIpX/2i9DpCkKGhoVWNRmMlM0vwzggAPGcvE5DcsZ9M03TdxMTEL4qaaOin8wjEcdySJN++IzPzKd323SqcILI7tNttIYMAI6UA5GcfD5AkpvsMY8wdHrpBpSIIxHG8PocbvTg4Hm+M6ZoXcG6CiKPgzp07j0fE38/IsKLAtfk5M7/RGPONAvsMXXUYAaXU+xDxQs9hv0FEx3nq5lbLRRCl1HsR8V0A8JTcluy5A3EsfBURlRlOW6L5oWtBQCn1d4j4Vh80uhl05U0QpdQZiNipl6jPEZGtp67PGgSdDiCgtZZSC155kJn5rcaYjofvehNEay1lvrxPKTzWY5CIJBQ2tBojoLWWd0opV+faJMb9uE4ngvAiSBzHxzPzja4zzCn/ISJ6T84+gnqXERgZGXluu92+BQB8HBQlROG4TqYU8iKIUupCRHxfh7GeJKJ+r93RYcjLGU4p9RJE/BcAWOIxwtVE9BYPPS+VOhFEJvgsIpIw2dBqjkDmlvIJz2mc2KlDGy+CaK3/FAD+1nNy3mqIeEKSJJ3+audtb1DcOwI5HBy/TUQv6QS+XgTJXEU6Xk6Ymf/CGPPBTgATxugMAlprOb73cZU/uxMJs70IItAppT6PiK/tDIy7RllHRKd2eMwwXIkIZPEk8j4iZR1c2t0zMzNryi694E0QmYnW+iMAsFh2ii0FHgf/gIgOdUExyFYfgSwyUfIeO7VOXCDmIojMJstqKFnVpT4FIOJ2Zh6XcgDZv693mvXiwuFFfXGMaifhG+POzL9X5t1IboLsbSW01pJF76QiV0sc3/q56mqRWFatL631N12zpUg5OGOM1+28zfxLI4hS6lhELDzFDjO/3xjj6/hmg0mQ6RICWUohIYlTK/NDszSCxHH8BWYuPDGYVFpNkuSVTggG4dogoJT6mGtyujKfiVIIorU+BgCkrkYZ7SdEVFQKzDLsC33mQEAyOKZpeptrmtOydpGyCOKSJ9cHzvCi7oNaTXSyXMBORUHL2kUKJ4jW+igAcK2ffSsAiJ5VK+vTwmrwINQRBDxf2As/wCmDIM6l0MTXHxGt/XLCi3pHntGuDpJlR3G6IihjFymUIFpr8fN3jSG/k5lPR8TEdkUCQWyRqrecTzx70d8uiibI3wOAkysyM59mjPmsSyBNLxJEa/00RJw9fGBmSejcE2WU81DUcxf5YpIkhblAFUYQpdQhiChRhi7tLiI6TBRcYkwQ8ZgkSSTopnYtjuM1aZpKxaYDM0JI4JAQ44kLJvMIAIhD6D1CGPndaDRu7IeiovNx8NhFdiLi4UmSbC3i4SiSIG9DxCtdjJKqRcYY8ecSvy6rr2fM3DLGSG6tWrQ4jg9L0/QPAeAYRJSSDE/NabjkChMPWPmAuJWIfpizv0qr++wiAPAuIrqkiIkVRhAPpv+IiB7jwamUOgcRJVP4ntqDWcjlWBGTL7OPOI7fwMz/AwBWljmOvPMh4seTJJHKWT3ZPJ4t+eB4cRFgFEKQoaGh50RR9GMXg/YU2xHH8euyB+sxx77ic4OI/0BEkhmjsm1oaOgPoig6BwBO7LCRN6RpetnExISUsu6p5rmLvJiI5PogVyuEIB7hkz9ZsmTJkRs2bLh/T9ZLObVGo/EM+f9TU1ObJycnf55rpiUrK6VeIMRg5rNKHmqv3SPiVUKUbmYjLGP+WmupELbX+pMLxr2EiCRnW65WCEG01jcAwAm2lvTaKVR2wCC7xjJbDEqW28bMQpKecerUWv81APy5A25bt23bdviWLVt2Oug8TjQ3QbTWzwSAn7kYEUXRmlardbuLTkVlI6313wHAn1TUvuuWL1++dt26de2K2mdt1vDw8OrMR8tah5lfa4z5orXCbgSLIIjce8j9h227k4heZCtcVbnMqW6dZxK0Tk5LTrlO6oWke0qp2xDRpSruJ4ko14dXboIopW5CRDnGtG21KSK/pwkppVZKCWPbCVdBTkIPjDFSR762TWstX7Hkq5Zt+y4RDdoK704uF0Hk9hcAnGp4ZOkja5ut3eVCM8/ClKFb93c/ObiJouhOF2wajcby8fHxH7nozJfNSxA555eadLbtQSKSi7LUVqFKckqpUxEx13fabs9HihjVueaK1lo+XF9mi+OcK5Ot/EK5XARRSl2DiG9wGPyzRHSag3xlRLXWUqJ4sgSD7mPme8SVJPuRIcT95CBElN/7Fz1mFEUHtVqtjuc1K2IeWuu/BID/ZduXFBVNkuTttvKFEkRrvQkArL/jIeLrkiSR2nW1amvXrm1s3br1PwDgdwswXHysvg0AN9qUmRsZGXlqmqYnMLMco8vPkwqwYYyI5GW3dju5a4og8RJPkkSqnHm1XDuI1ppdRm02m8vGxsYectGpgmxB2Vnkoutv0jT9km/tRanmNTU1JYnz3gYAeU8C/56Iunqp6bO2K1aseHKj0fglAES2+tPT0789OTn5sK38fDlvgiilBhFRdhDbdgsRSax6rVoBL+XijXulbPVEJLtH7qa1fiIzi3OofHXwKSMwawMzX2iMeX9ugzrcgUtohJiGiC/zrZ7sTZDMGe8aW2yY+VJjzHm28lWQE/eR7DjX94b8Y81m86/GxsbuK2M+o6Oj+8/MzHwIAN7k2b/cuMtLe9eKZPrYHcfxpcwsngtWLc/pnTdBLNOO7poAM7/BGCPJHGrT4jj+hK9vVRG3uLZAub64zu9XfLeSJPGqHWhrX9FyWutXAcB1Dv16l/DLQxCn47Y0TV84MTGx2WFSXRXNvHL/1ceIbpwSeXzl3TU1iVepkxdw9h7ygO3a5IkhykOQ/3I4gtxJRE+wnVAV5LTWkjDA2WWdmY80xpRxHLwoLJn7ixwXu7YbiOgVrkrdlNday+XfwZY2bCOiJ1vKPkbMiyDZd18hiFWT7/FJkrj40Fj1W5aQ6/vVPDs+QET/uyy7bPpVSr0GEZ2P0hHxjXUKunKtKzI9Pb2/T8iEF0G01nKT6eIu8nEikqPJWjSttfhZuUYCfpqIzqjCBLXWVwDAOxxtuYOIVjnqdE08juOLmPndDgZ4BVD5EkRqgszGkts0RHxLkiRX28h2W0ZrLZeBUtPEpd3TbDZHyjqtcjFEZLMdftz1CBgRn58kiVyIVr4ppd4kEaa2hjLzm40x1vJz/foS5GIJjLc1TnIyEJFxkO+aqNb6dAD4tIsB85NPuOiVKauUejciXuQyBjO/3Rjj4lvn0n2hssPDw8NpmsqHgG3zKiPuRRCl1NWI+GZby4jIaxzb/ouU01q7ZoaUG/LRoi4Bi5qLXCYCgCS3sL5xZ+YvGWNeXZQNZfYzODj4pIGBgV/ZjuE7N68H19H1YjsR7Ws7kW7Laa0l9v3pDnb8GRFJVGHlmkc14l8SkYQw1KK5nGT5HhT5EkSc7STHk037KRE920aw2zIe2/bDS5YsOWhvySe6OaehoaGnZ9lmFial26NZiHhUkiRSfqDyTWstGVxsy0F7RbL6EkTqDx5pieD3iegFlrJdFfPwu7qWiAovElQkCL2cUMPxqNerrowvQe52OCEZJyLJmlj55vpuhYinJ0li7Y/WDQC01k5Bbcz8KWPMmd2w1XXMOI6/xMwnW+o9RETOPnW+BBGX9X1sDEPEm5MkcYlZt+m2FBnXmhSNRuNp4+Pj4npd2ZZ9zXLJKXYTEVlH7HVz4lrrzwLA621t8DkscibI0Ucf3dy+ffu0rVHiVEZEtix36LZ4Ua319wFgNpm2RbuPiA6wkOu6iNbaxS3oP4jo+V032sIArfUnAcB6t/OJR3ImiMcn0jVEJHcLlW9aawmqsXqhzeMA12kglFLjiGgbVfcIERURtVj6NOM4vlLiYmwHajabB46Njf3EVl7knAkyMjJyaLvdtr5tzRsT7DKZPLKuGVp8z9Xz2Oirq5T6Z0Q8xUH/6XWoT6K1drqw9vEodyaIbZmCeYvx10T0XofF6YpoHMdDzGx921+nADCl1CWIeK4tsIiokiSZsJXvlpxS6gOI+Be246dpunpiYsIpn5kzQYaGhlZFUWSdNpSZ/8oYY52FwnayRcsFgvwG0boQRGv9QQB4j8OzsJKInEpn+BDENXlXLTIphq9Yj3nMavEVy/UdpNFoHDY+Pn6XA6Hc30FGR0efPTMzY51TqS7vIAJaeEmffXRq85Kutf5HAHij7QOfpukzXDPKOO8go6Oj+87MzGyzNQoAriYip8KeDn0XKhqOeWfhrNMx75clMbftQ7DPPvsM3HLLLTO28l6nWNknrUs+LO+AeZeJFCEbLgpnUazNRWEcx//KzH9gufZeTrPOO0hGENlBrDx0EfHLSZK4HDFazrd4seBqMpsrqzauJlpreeG2Leh6DxE9x/Wp8SWIvIPYeujeSETW1adcJ1CkfHBWnCXI++tSmUprLfm8bG/9NxHRCtfnxZcgLvXivkVEttugq/2Fygd399kshHVyd5db8d+xfAi8Mnt6ESSO49slI5+lYT8moudaynZdLARM1Spgytpp1tcn0Isgrq4LeZIHd5oxIeS2HiG3rodFvu9WXgRxrTgaRdFIq9Vqdfph9xkvJG2oR9IGrbUCAHJYY68Lay+CKKXOQMRP2RrHzGcYY5wyhdj2XbRcSPtTj7Q/cRyfyczi7m7b3k1E4tzo1LwIorU+CgD+3XYkRPxIkiQX2Mp3Wy4kjuv2Ciw+vtZa0hNJtKRtO5aIvmkrPCfnRZDBwcFnDAwMuKT0r81RrwATUo+6Pkadl3c8KIJms3mAT2I/L4JkL0gPAoBtjG+tTrKy+YXk1Z1/7q1H1FrvAICllgre0Z/eBHGMUpN5PJmIXHy4LOdejlgof1AOrkX06lEO+ptEdKzP2N4EcQ2YR8QTkiS50cfIbumEAjrdQn7v4yqlTkPEzzhYdzERuSS63tW1N0E83DJqEVk4H/RQgs3hEeygqEeEpHdphzwEeYmk9LHFBRG/kyTJ79vKV0XO44NgoelVLuJZG7+r+aBqrV0ye4p/mXdRI2+CZMmRXUrrps1mc79QBjqUgc7z4edafk3G8smHleuYd05ZKXUbIlpXjmLm44wxLoV38mBZmO7atWsbW7dulUwuUjskb5NS0PIJeGOapusWi3AbGRl5apqmJzCzeETLTxEpecaISNYtzTuZTuu7XlIDwCQR2abJfdx0vHcQ6cnV5aROrtQLkdJaHyFgl/BA3MfMUldw7keGkNrnByGi/N6/6DG7UWS0qDloraW6rVS5tWrM/BljjHVY7sJOcxFEKXUyIn7JytJfC32DiI5zkK+UqFLqVET8YqWMcjQmq4t+h6NaVcQjrbVUt7UK1hOj8xYFykUQn6qqPsm7qrI6YkcBL+1dm06dd/AMe9cPZIii6JmtVsu64GyhO0j2NUuSrQ05rPp7iOhDDvKVE1VKrZSCLJUzbC8GMfNrjDHX1snmhbZqrf8WAP7UYQ63EZH4DXq3XDtIRpCrAOBPbC1g5tuNMWts5asql+2e66T8WlVtzOz6oWT+IKLvVtzORc3TWstByaGLCmYCiHhekiSX2srvTi43QXzqckdRtKbVallnZ8wzwZJ15TuxlF+z/oAo2Z6F3V+3fPnytevWrWt3eNzCh1NKvVju0hw7fg4RyeGHd8tNkEMOOWTpsmXLNgPAcgcrvCqOOvTfUVGl1Puy3Le2zptl27eNmS+rS/IFGzA83v28YtAX2pKbINnXrI8CwHk2E81kvOrFOfTfcVFxS4mi6BxmPqvjg88bEBGvStNUyCEZPyrbtNbPlJIMzPxsZt5mjJFiOLtta9as2WfHjh1S9s/6Q7io0txFEcQpgEpQYOZXGGNuqOwKehqWeQGfAwAnenbhq3aDEGNiYsLa/cd3oDx6SqmToih6224SvkmOqyuI6HML+3ctI5c9X88zxmzJY6voFkKQbBeRCEPrEwNEvD5JklfmnUBV9bOgK4l4W1myjXcg4seTJHHxbi3ZpN13Pzw8vDpNU/Ho3ttX0ceFxmqtXdJMyeCFZYcskiDyFUu+alm3Xt1F5gMQx/FhaZpKjcZjEFFKZz/VGqDdC/4CAL4GALcAwK1EJKdUtWhxHLeYObYwdleZgjiOX83Mclpo3Zj5XGPMZdYKexEsjCBxHC9nZnlZt43ykiRlPb2L7A73OI7XpGn6UgA4EBEPzNxK5PfC0m/isyUZLMUbWH7f22g0vlaX7DAL5+5y2snMFxpj3p99M3G9Z4N2u33oxo0bf1ApgogxcRx/QS6kXAzrh13EBg+pT5IRRt7P7q1DCTSbec3JaK2/DgBWUX1yCZskyWqttVTbdXVu/SQRFXbsXtgOIkAopU6UXcEFuH7cRVzw6RVZ14q04pIURdHVHu9wzlWk9oZxoQTJdpH1siu4LGzYRVzQqqes6z0GIr7FMe+VAFN4ReXCCeKzixR56lDPx6f3rdZaSyyL9bE+M/8bIjpFoDLz7xljrPO12aBeOEF8dxFEfEeSJFfaGB1k6ofA6Ojo/jMzM95etRYz/jwRvd5CzkmkFIJ47iL3Zj5a1vUPnWYahLuOgNb6xwDgXMTGxnA5Si/jkrQUgvjuIsx8pTHmHTaABJn6IaC1lvuMV5dg+ToiOrWEfou7SV9onOcuIncjL0uS5KYyJhv67C4CcRxfwMwfLtoKZj7eGCPHyIW30nYQsVQp9VVEdHUnKcxNoHC0Qoe5EPC811hszOuI6OTFhHz/f9kE8fHhl13kfyZJcpHvpIJeNREo40VdrgiiKHqCRLVK/isAOFi8FJhZMu5c5pPRfT56pRIkexe5lJnFu9WpIeIfJUmy3kkpCFceAa21uCO9oCBDty7mAs/MlxpjXEIxHmNa6QQ58sgjf6fZbN7mcXqxtdFoHD8+Pn5XQWCGbiqAgFLqGkR8QydNkUw0SZK81mfM0gkiRmmt5WTqCg8Da1VXxGN+faeitT4fAD7S6Ykj4jFJkogHtFPrCEEyknxLXL6drPu18CVE9C4PvaBSQQRKelG3manXRWInCeLkajB/xsz8VmOMZE8JreYIlPGibgmJV4x6xwiS7SJSdPFMywnNF5th5pN6MUTXA4vaq2itNwHAYIcnUguCPA0A5EJHe4Dz31nya5fSvx7DBJWyEXDN6VyQPV6ZdDq6g8hEs/xGQpKFEXQ2OGwhoufZCAaZ6iJQYiLwPU36F1nKWwlXdmodJ0hGkrMQ8RNOlmbCiJgkSTLsoxt0qoOAawm/PJYj4ulJklzj00dXCCKGxnHsdYEouiEK0Wepq6WTxYdIKYOBEi3bDgAfzJMLumsEEVBc4pQXgjg/sL9EgEPXJSIQx/FLpX5HwTVQvg8ARnJAt9vtr2zatOmneabQVYJkRTL/xeOWfXbOzPwJY4xLtu88WAXdEhDQWkvy708DwPM9ut8JAJLjeZyZJfuJKSJZ3Hw7ukqQ7H3EuebDAiC/SkTWFYc8FiGolIzA8PDwAWmavgkATl+EKHcLIRDx9jRNkx07dpjNmzdPlWle1wmSfdV6JwDkSfQ11mg0Xjc+Pv6jMsEKfZePgMQRySvq/JGiKPre9PT0hrxfl3ysrwRBMpJcDAB5XEokwdoZxhhxaQktIFAIApUhSEYSqf+XJ3RyipnfEdxSCnk2QidFJq8uCs04jm+XQpM5+wsOjjkBDOq/RqBSO8jcomitpSqQ5KvN025sNBrnhniSPBAG3UoSJPu6xQUsz1ap/BQiEwtAsk+7qCxBMpJI4ckX5V2bEOOeF8HH62utlXz4MLNk8/+ZZPbvxXe/ShMkI4lUHHpdAUt8EyJ+JKQUyoek1lruKuTOQmqdLGziaf1hInKq55HPonK1K0+QjCT/BwBm60XkbZKcrtFoXNRqtUIGRwcw4zh+OTOfbVnC4NReIUktCCLrqJQ6BxFz1bye9zzci4gXhVzAizNkeHhYCm2ezcynLS79G4lms3nA2NjYfS46VZStDUEEvDiO38zMUjOiqHYTM18RIhUfD+eKFSsOjqLobESUXaPhAfixeXNSeYxZuEqtCJLtJOK7dYmvg+PuEBT3+TRNrwpEARgcHHzSwMCAkEJ+DsjxxD2uGGeOvrqmWjuCZCR5QfZ1y6qkly26/UwUSaYwPT39akR8KwAcYYvZnuR6pZxFLQkytyh5gq729gD0E1GyNDyScf0UAHhKXmLM6TPzKcaYLxfVX7f6qTVBst1Ewnfl5d0nxn0x3O8EgOujKLq+1WpJ3EFPNKlInKbpKYgopJB4jKLbnY8++ujKzZs3/6rojjvdX+0JkpFEkmQLSXyypVhhLhFq2c6yfmJiQvLL1q4ppU7KSCHEkITPpbSsEFJPfKD0BEFklaWMMgB8yDPvluuD8k2JYkPE1szMzHc2btz4oGsHnZCXvMiNRkMJPBkxcnslWNj9TiLySTNr0XXnRXqGIHPQZckAJK7EJ82pzwqkANCS2t5SeLLdbt/SDcIcffTRze3bt8sOOksIAJDMLx1LzoaIX2+32xeXUQbNZ1GK0uk5gswjiiTMFqKUUhNvkQWQWnybEfHONE03NxqNO3fu3Ll5cnLy4TwLt3bt2sbWrVv3azQaT2m32/sBwO8CwAgzDyPiCAA08/TvqTsBAJcT0T966ldarWcJIqjLV4yBgYHzfeqTlLRqQhypabEDEXcw8w4AeHTub/k3IspDLqdJ+yHifsw8+3f23/YtyS6fbn+GiJc/+OCDl2/ZskWSJ/Rk62mCzK2YZHMEgPM9ysH15KLnnJR8pZT8AbJrSNxOT7e+IMg8opwYRdFZUrarp1e1vMl9Loqiy1qtVqu8IarVc18RJBDF7+FDxJvTNL2sH11x+pIggSjWRJFy3NcSkZSt6MvW1wRZQJTTmFkS0EmEXD83CXpaH0XR+lartbGfgZC5B4LMewLEBSPHsIjzAAABmklEQVQjyUkAcFQfPRxyurY+TVPxEri5j+a96FQDQfYAkdZaCCJEkV1l+aJI1k/gIURcz8zrt23btr6Xj2rzLE0gyCLoHXLIIUv33XffVyHiH2aOfbldwfMsWE7dXwLA2BwxiOg/c/bX8+qBII5LPDIy8tyZmZnVURRJcrtRZn5MHlnH7soW/yEASI16iqIoeeCBByjsFG6QB4K44fU4aYnAW7Jkyeo0TVcj4qHM/Dz5DQDLcnbtrC7Vt5j5NmbeIH8TkRAktBwIBILkAG9vqoODg88YGBjYRRghThRFz2JmcRcR8shvG9eRaQDYBgDiMSy/tyHirr/TNN0WRdGtjzzyyB29EH9R0nJ4dxsI4g1dMYqjo6OzRJmampolDiJKRsldJCCiR4oZKfTig0AgiA9qQadvEAgE6ZulDhP1QSAQxAe1oNM3CASC9M1Sh4n6IBAI4oNa0OkbBAJB+mapw0R9EAgE8UEt6PQNAoEgfbPUYaI+CASC+KAWdPoGgUCQvlnqMFEfBAJBfFALOn2DQCBI3yx1mKgPAv8fk4vejM4yeJUAAAAASUVORK5CYII=;" vertex="1" parent="1">
          <mxGeometry x="548.75" y="761.25" width="32.5" height="32.5" as="geometry" />
        </mxCell>
        <mxCell id="RJD5OzlgK-uC3pti9mqh-81" value="" style="edgeStyle=orthogonalEdgeStyle;rounded=0;orthogonalLoop=1;jettySize=auto;html=1;fontSize=11;exitX=0;exitY=0.5;exitDx=0;exitDy=0;" edge="1" parent="1" source="RJD5OzlgK-uC3pti9mqh-48">
          <mxGeometry relative="1" as="geometry">
            <mxPoint x="661" y="777.5" as="sourcePoint" />
            <mxPoint x="581" y="777.5" as="targetPoint" />
          </mxGeometry>
        </mxCell>
        <mxCell id="RJD5OzlgK-uC3pti9mqh-48" value="后台协程" style="rounded=1;whiteSpace=wrap;html=1;fontSize=11;strokeWidth=2;" vertex="1" parent="1">
          <mxGeometry x="620" y="762.5" width="60" height="30" as="geometry" />
        </mxCell>
        <mxCell id="RJD5OzlgK-uC3pti9mqh-64" style="edgeStyle=orthogonalEdgeStyle;rounded=0;orthogonalLoop=1;jettySize=auto;html=1;exitX=1;exitY=0.5;exitDx=0;exitDy=0;fontSize=11;" edge="1" parent="1">
          <mxGeometry relative="1" as="geometry">
            <mxPoint x="356" y="677" as="sourcePoint" />
            <mxPoint x="416" y="677" as="targetPoint" />
          </mxGeometry>
        </mxCell>
        <mxCell id="RJD5OzlgK-uC3pti9mqh-73" value="过滤器" style="text;html=1;align=center;verticalAlign=middle;resizable=0;points=[];autosize=1;strokeColor=none;fillColor=none;fontSize=11;" vertex="1" parent="1">
          <mxGeometry x="310" y="700" width="50" height="20" as="geometry" />
        </mxCell>
        <mxCell id="RJD5OzlgK-uC3pti9mqh-74" value="过滤配置" style="text;html=1;align=center;verticalAlign=middle;resizable=0;points=[];autosize=1;strokeColor=none;fillColor=none;fontSize=11;" vertex="1" parent="1">
          <mxGeometry x="195" y="697" width="60" height="20" as="geometry" />
        </mxCell>
        <mxCell id="RJD5OzlgK-uC3pti9mqh-76" value="10s一次" style="text;html=1;align=center;verticalAlign=middle;resizable=0;points=[];autosize=1;strokeColor=none;fillColor=none;fontSize=11;" vertex="1" parent="1">
          <mxGeometry x="537" y="740" width="60" height="20" as="geometry" />
        </mxCell>
        <mxCell id="RJD5OzlgK-uC3pti9mqh-90" value="" style="edgeStyle=orthogonalEdgeStyle;rounded=0;orthogonalLoop=1;jettySize=auto;html=1;fontSize=11;" edge="1" parent="1" source="RJD5OzlgK-uC3pti9mqh-86">
          <mxGeometry relative="1" as="geometry">
            <mxPoint x="325" y="620" as="targetPoint" />
          </mxGeometry>
        </mxCell>
        <mxCell id="RJD5OzlgK-uC3pti9mqh-86" value="" style="shape=image;verticalLabelPosition=bottom;labelBackgroundColor=default;verticalAlign=top;aspect=fixed;imageAspect=0;image=data:image/png,iVBORw0KGgoAAAANSUhEUgAAAMgAAADICAYAAACtWK6eAAAAAXNSR0IArs4c6QAACDZJREFUeF7t3W1yGzcMgGFZPljSy9jjUyQ9hSa5TNuDReoo0zT+GMkAV6QX3Me/2gQksS/wCrKjXd/tfCGAwEUCd9gggMBlAgTRHQhcIUAQ7YEAQfQAAm0ETJA2blZthABBNlJol9lGgCBt3KzaCAGCbKTQLrONAEHauFm1EQIE2UihXWYbAYK0cbNqIwQIspFCu8w2AgRp42bVRggQZCOFdpltBAjSxs2qjRAgyEYK7TLbCBCkjZtVGyFAkI0U2mW2ESBIGzerNkKAIBsptMtsI0CQNm5WbYQAQTZSaJfZRmBKQQ6Hw+f9fv9XGxKrqhF4fHzs1sfdNv5IyAT5SPrjzyZIkjlBksCKhxMkWUCCJIEVDydIsoAESQIrHk6QZAEJkgRWPJwgyQISJAmseDhBkgUkSBJY8XCCJAtIkCSw4uEESRaQIElgxcMJkiwgQZLAiocTJFlAgiSBFQ8nSLKABEkCKx5OkGQBCZIEVjycIMkCEiQJrHg4QZIFJEgSWPFwgiQLSJAksOLhBEkWkCBJYMXDCZIs4FmQ3W53vqvwdDwef94U9vy/I////MjXa5Pp/Ay/dv57f3de/+s6Ws5e65r9fv/lFrkR5BYU7bEqAofD4StBVlUSyayJAEHWVA25rI4AQVZXEgmtiQBB1lQNuayOAEFWVxIJrYkAQdZUDbmsjgBBdrvd9+/fPd1wda05LqGHh4c/Lp1GkN1u9+3bt9O4cjhpTQTu7u7+Jsg7FSHImlp2bC4ECfAmSADSpCEECRSWIAFIk4YQJFBYggQgTRpCkEBhCRKANGkIQQKFJUgA0qQhBAkUliABSJOGECRQWIIEIE0aQpBAYQkSgDRpCEEChSVIANKkIQQJFJYgAUiThhAkUFiCBCBNGkKQQGEJEoA0aQhBAoUlSADSpCEECRSWIAFIk4YQJFBYggQgTRpCkEBhbyXIGXbgOCE3InA6nc5Pplz0RZAAvlsJcjwe/3x6evoaOFLIQgLn26QJ8hviz+fW9voiSC+y/fYlyEu2BOnXayV3JghBSjbuqKQJQpBRvVbyHIIQpGTjjkqaIAQZ1WslzyEIQUo27qikCUKQUb1W8hyCEKRk445KmiAEGdVrJc8hCEFKNu6opAlCkFG9VvIcghCkZOOOSpogBBnVayXPIcjkgmQK/Pj4GPqw5uFw+Lzf78v+tqzM7QIZftdeAdwPEnh9/IiPu2cKTJC3RczwI0hAgmshBFkI8EbLTZB2kKG3GK3bE6SV3G3XEaSdJ0EC7HwPEoD0KsT3IAFmJkgA0oAQE6QdsgkSYGeCBCCZIHlIJkieWY8VJkg7VRMkwM4ECUAyQfKQTJA8sx4rTJB2qlNOkCiOh4eHPyKx5wlyf3//JRK7xpgfP378E33wnn8ofFnB6QRZY4NWyokgBKnUr8NzJQhBhjddpQMJQpBK/To8V4IQZHjTVTqQIASp1K/DcyUIQYY3XaUDCUKQSv06PFeCEGR401U6kCAEqdSvw3MlCEGGN12lAwlCkEr9OjxXghBkeNNVOpAgkwty/uRttCGfnp5Cv389s2f07NFx0WslyOSCZArsuVhvNc3wuya5hzYEXgLdMBWANCDEDVPtkKe7HyTzCmiCmCDvqUOQ9wjtdjv3pAcgvQrxFivAzFusAKQBId5itUM2QQLsTJAAJBMkD8kEyTPrscIEaadqggTYmSABSCZIHpIJkmfWY4UJ0k7VBAmwM0ECkEyQPKSPmCCHw+FrNNPow9T+E+TTpX2Px+P/LzT7/f70K+7Sn7/e53lcNPdsXPRaM/+OdC0HP+YNVOgjBAmkJeQKAYK8hDPdWyzdv4wAQQiyrIMmX00Qgkze4ssujyAEWdZBk68mCEEmb/Fll0cQgizroMlXE4Qgk7f4sssjCEGWddDkqwlCkMlbfNnlEYQgyzpo8tUEIcjkLb7s8ghCkGUdNPlqgkwuyLnA0R72a6DfkiLIBgQ5nU6hpyt67A9B3nsxne7TvJlXQIIQhCBXCBCEIAQhyM496e9pcPnvvcUKsHNPegDSqxC33AaYfcQtt74HeVsYEyTQrBdCTJAAOxMkAMkEyUMyQfLMeqwwQdqpmiABdiZIAJIJkodkguSZ9VhhgrRTnW6CtKOw8kwg80OOa8T8FCvQTx8xQQJpCblCgCAv4ZggdHlBgCAEocQ6JkjoA6WRYkV/xXVkr9cxJkgLtYnXjJogVRASpEqlBuVJEG+xBrVazWMIQpCanTsoa4IQZFCr1TyGIASp2bmDsiYIQQa1Ws1jCEKQmp07KGuCEGRQq9U8hiAEqdm5g7ImCEEGtVrNYwhSVJCa7VYv6/v7+0/RB+9du7r3Pu5ehUyJj5pUgSnP3wQIEuiGW90PEjhKyMoIECRQEIIEIE0aQpBAYQkSgDRpCEEChSVIANKkIQQJFJYgAUiThhAkUFiCBCBNGkKQQGEJEoA0aQhBAoUlSADSpCEECRSWIAFIk4YQJFBYggQgTRpCkEBhCRKANGkIQQKFJUgA0qQhBAkUliABSJOGECRQWIIEIE0aQpBAYQkSgDRpCEEChSVIANKkIQQJFJYgAUiThhBk0sK6LASeE+h6yy3UCFQnQJDqFZR/VwIE6YrX5tUJEKR6BeXflQBBuuK1eXUCBKleQfl3JUCQrnhtXp0AQapXUP5dCRCkK16bVydAkOoVlH9XAgTpitfm1QkQpHoF5d+VAEG64rV5dQIEqV5B+XclQJCueG1enQBBqldQ/l0JEKQrXptXJ0CQ6hWUf1cCBOmK1+bVCRCkegXl35UAQbritXl1AgSpXkH5dyXwLzJVdl+l9cYuAAAAAElFTkSuQmCC;" vertex="1" parent="1">
          <mxGeometry x="300" y="540" width="50" height="50" as="geometry" />
        </mxCell>
        <mxCell id="RJD5OzlgK-uC3pti9mqh-87" value="删除事件" style="text;html=1;align=center;verticalAlign=middle;resizable=0;points=[];autosize=1;strokeColor=none;fillColor=none;fontSize=11;" vertex="1" parent="1">
          <mxGeometry x="345" y="555" width="60" height="20" as="geometry" />
        </mxCell>
        <mxCell id="RJD5OzlgK-uC3pti9mqh-91" value="删除统计组件" style="text;html=1;align=center;verticalAlign=middle;resizable=0;points=[];autosize=1;strokeColor=none;fillColor=none;fontSize=11;" vertex="1" parent="1">
          <mxGeometry x="167" y="610" width="90" height="20" as="geometry" />
        </mxCell>
      </root>
    </mxGraphModel>
  </diagram>
</mxfile>
